<svg version="1.1" viewBox="0.0 0.0 507.37270341207346 206.3490813648294" fill="none" stroke="none" stroke-linecap="square" stroke-miterlimit="10" xmlns:xlink="http://www.w3.org/1999/xlink" xmlns="http://www.w3.org/2000/svg"><clipPath id="p.0"><path d="m0 0l507.3727 0l0 206.34908l-507.3727 0l0 -206.34908z" clip-rule="nonzero"/></clipPath><g clip-path="url(#p.0)"><path fill="#000000" fill-opacity="0.0" d="m0 0l507.3727 0l0 206.34908l-507.3727 0z" fill-rule="evenodd"/><path fill="#ffffff" d="m23.217848 45.788715l28.692915 0l0 28.692913l-28.692915 0z" fill-rule="evenodd"/><path stroke="#000000" stroke-width="1.0" stroke-linejoin="round" stroke-linecap="butt" d="m23.217848 45.788715l28.692915 0l0 28.692913l-28.692915 0z" fill-rule="evenodd"/><path fill="#000000" d="m39.17097 67.05517l-1.640625 0l0 -10.453125q-0.59375 0.5625 -1.5625 1.140625q-0.953125 0.5625 -1.71875 0.84375l0 -1.59375q1.375 -0.640625 2.40625 -1.5625q1.03125 -0.921875 1.453125 -1.78125l1.0625 0l0 13.40625z" fill-rule="nonzero"/><path fill="#ffffff" d="m51.910763 45.788715l28.692913 0l0 28.692913l-28.692913 0z" fill-rule="evenodd"/><path stroke="#000000" stroke-width="1.0" stroke-linejoin="round" stroke-linecap="butt" d="m51.910763 45.788715l28.692913 0l0 28.692913l-28.692913 0z" fill-rule="evenodd"/><path fill="#000000" d="m61.692013 63.52392l1.640625 -0.21875q0.28125 1.40625 0.9531212 2.015625q0.6875 0.609375 1.65625 0.609375q1.15625 0 1.953125 -0.796875q0.796875 -0.796875 0.796875 -1.984375q0 -1.125 -0.734375 -1.859375q-0.734375 -0.734375 -1.875 -0.734375q-0.46875 0 -1.15625 0.171875l0.1875 -1.4375q0.15625 0.015625 0.265625 0.015625q1.046875 0 1.875 -0.546875q0.84375 -0.546875 0.84375 -1.671875q0 -0.90625 -0.609375 -1.5q-0.609375 -0.59375 -1.578125 -0.59375q-0.953125 0 -1.59375 0.609375q-0.6406212 0.59375 -0.8124962 1.796875l-1.640625 -0.296875q0.296875 -1.640625 1.359375 -2.546875q1.0624962 -0.90625 2.6562462 -0.90625q1.09375 0 2.0 0.46875q0.921875 0.46875 1.40625 1.28125q0.5 0.8125 0.5 1.71875q0 0.859375 -0.46875 1.578125q-0.46875 0.703125 -1.375 1.125q1.1875 0.28125 1.84375 1.140625q0.65625 0.859375 0.65625 2.15625q0 1.734375 -1.28125 2.953125q-1.265625 1.21875 -3.21875 1.21875q-1.765625 0 -2.9218712 -1.046875q-1.15625 -1.046875 -1.328125 -2.71875z" fill-rule="nonzero"/><path fill="#ffffff" d="m80.603676 45.788715l28.69291 0l0 28.692913l-28.69291 0z" fill-rule="evenodd"/><path stroke="#000000" stroke-width="1.0" stroke-linejoin="round" stroke-linecap="butt" d="m80.603676 45.788715l28.69291 0l0 28.692913l-28.69291 0z" fill-rule="evenodd"/><path fill="#000000" d="m90.384926 63.55517l1.71875 -0.140625q0.1875 1.25 0.875 1.890625q0.703125 0.625 1.6875 0.625q1.1875 0 2.0 -0.890625q0.828125 -0.890625 0.828125 -2.359375q0 -1.40625 -0.796875 -2.21875q-0.78125 -0.8125 -2.0625 -0.8125q-0.78125 0 -1.421875 0.359375q-0.640625 0.359375 -1.0 0.9375l-1.546875 -0.203125l1.296875 -6.859375l6.640625 0l0 1.5625l-5.328125 0l-0.71875 3.59375q1.203125 -0.84375 2.515625 -0.84375q1.75 0 2.953125 1.21875q1.203125 1.203125 1.203125 3.109375q0 1.8125 -1.046875 3.140625q-1.296875 1.625 -3.515625 1.625q-1.8125 0 -2.96875 -1.015625q-1.15625 -1.03125 -1.3125 -2.71875z" fill-rule="nonzero"/><path fill="#ffffff" d="m109.296585 45.788715l28.692917 0l0 28.692913l-28.692917 0z" fill-rule="evenodd"/><path stroke="#000000" stroke-width="1.0" stroke-linejoin="round" stroke-linecap="butt" d="m109.296585 45.788715l28.692917 0l0 28.692913l-28.692917 0z" fill-rule="evenodd"/><path fill="#000000" d="m119.31221 63.96142l1.578125 -0.140625q0.203125 1.109375 0.765625 1.609375q0.5625 0.5 1.453125 0.5q0.75 0 1.3125 -0.34375q0.578125 -0.34375 0.9375 -0.921875q0.375 -0.578125 0.609375 -1.5625q0.25 -0.984375 0.25 -2.0q0 -0.109375 0 -0.328125q-0.5 0.78125 -1.359375 1.265625q-0.84375 0.484375 -1.828125 0.484375q-1.671875 0 -2.8125 -1.203125q-1.140625 -1.203125 -1.140625 -3.171875q0 -2.03125 1.1875 -3.265625q1.203125 -1.234375 3.0 -1.234375q1.3125 0 2.390625 0.703125q1.078125 0.703125 1.640625 2.0q0.5625 1.296875 0.5625 3.75q0 2.5625 -0.5625 4.078125q-0.5625 1.515625 -1.65625 2.3125q-1.09375 0.796875 -2.578125 0.796875q-1.5625 0 -2.5625 -0.875q-0.984375 -0.875 -1.1875 -2.453125zm6.71875 -5.890625q0 -1.40625 -0.75 -2.234375q-0.75 -0.828125 -1.8125 -0.828125q-1.09375 0 -1.90625 0.890625q-0.8125 0.890625 -0.8125 2.3125q0 1.28125 0.765625 2.078125q0.78125 0.796875 1.90625 0.796875q1.140625 0 1.875 -0.796875q0.734375 -0.796875 0.734375 -2.21875z" fill-rule="nonzero"/><path fill="#ffffff" d="m137.9895 45.788715l28.692917 0l0 28.692913l-28.692917 0z" fill-rule="evenodd"/><path stroke="#000000" stroke-width="1.0" stroke-linejoin="round" stroke-linecap="butt" d="m137.9895 45.788715l28.692917 0l0 28.692913l-28.692917 0z" fill-rule="evenodd"/><path fill="#000000" d="m147.77075 60.46142q0 -2.359375 0.484375 -3.796875q0.484375 -1.453125 1.4375 -2.234375q0.96875 -0.78125 2.421875 -0.78125q1.078125 0 1.890625 0.4375q0.8125 0.421875 1.328125 1.25q0.53125 0.8125 0.828125 1.984375q0.3125 1.15625 0.3125 3.140625q0 2.359375 -0.484375 3.8125q-0.484375 1.4375 -1.453125 2.234375q-0.953125 0.78125 -2.421875 0.78125q-1.921875 0 -3.03125 -1.390625q-1.3125 -1.671875 -1.3125 -5.4375zm1.671875 0q0 3.296875 0.765625 4.390625q0.78125 1.078125 1.90625 1.078125q1.140625 0 1.90625 -1.09375q0.765625 -1.09375 0.765625 -4.375q0 -3.296875 -0.765625 -4.375q-0.765625 -1.078125 -1.921875 -1.078125q-1.125 0 -1.796875 0.953125q-0.859375 1.21875 -0.859375 4.5z" fill-rule="nonzero"/><path fill="#ffffff" d="m166.68242 45.788715l28.692917 0l0 28.692913l-28.692917 0z" fill-rule="evenodd"/><path stroke="#000000" stroke-width="1.0" stroke-linejoin="round" stroke-linecap="butt" d="m166.68242 45.788715l28.692917 0l0 28.692913l-28.692917 0z" fill-rule="evenodd"/><path fill="#000000" d="m176.46367 63.52392l1.640625 -0.21875q0.28125 1.40625 0.953125 2.015625q0.6875 0.609375 1.65625 0.609375q1.15625 0 1.953125 -0.796875q0.796875 -0.796875 0.796875 -1.984375q0 -1.125 -0.734375 -1.859375q-0.734375 -0.734375 -1.875 -0.734375q-0.46875 0 -1.15625 0.171875l0.1875 -1.4375q0.15625 0.015625 0.265625 0.015625q1.046875 0 1.875 -0.546875q0.84375 -0.546875 0.84375 -1.671875q0 -0.90625 -0.609375 -1.5q-0.609375 -0.59375 -1.578125 -0.59375q-0.953125 0 -1.59375 0.609375q-0.640625 0.59375 -0.8125 1.796875l-1.640625 -0.296875q0.296875 -1.640625 1.359375 -2.546875q1.0625 -0.90625 2.65625 -0.90625q1.09375 0 2.0 0.46875q0.921875 0.46875 1.40625 1.28125q0.5 0.8125 0.5 1.71875q0 0.859375 -0.46875 1.578125q-0.46875 0.703125 -1.375 1.125q1.1875 0.28125 1.84375 1.140625q0.65625 0.859375 0.65625 2.15625q0 1.734375 -1.28125 2.953125q-1.265625 1.21875 -3.21875 1.21875q-1.765625 0 -2.921875 -1.046875q-1.15625 -1.046875 -1.328125 -2.71875z" fill-rule="nonzero"/><path fill="#ffffff" d="m195.37534 45.788715l28.692902 0l0 28.692913l-28.692902 0z" fill-rule="evenodd"/><path stroke="#000000" stroke-width="1.0" stroke-linejoin="round" stroke-linecap="butt" d="m195.37534 45.788715l28.692902 0l0 28.692913l-28.692902 0z" fill-rule="evenodd"/><path fill="#000000" d="m213.76596 65.47704l0 1.578125l-8.828125 0q-0.015625 -0.59375 0.1875 -1.140625q0.34375 -0.90625 1.078125 -1.78125q0.75 -0.875 2.15625 -2.015625q2.171875 -1.78125 2.9375 -2.828125q0.765625 -1.046875 0.765625 -1.96875q0 -0.984375 -0.703125 -1.640625q-0.6875 -0.671875 -1.8125 -0.671875q-1.1875 0 -1.90625 0.71875q-0.703125 0.703125 -0.703125 1.953125l-1.6875 -0.171875q0.171875 -1.890625 1.296875 -2.875q1.140625 -0.984375 3.03125 -0.984375q1.921875 0 3.046875 1.0625q1.125 1.0625 1.125 2.640625q0 0.796875 -0.328125 1.578125q-0.328125 0.78125 -1.09375 1.640625q-0.75 0.84375 -2.53125 2.34375q-1.46875 1.234375 -1.890625 1.6875q-0.421875 0.4375 -0.6875 0.875l6.546875 0z" fill-rule="nonzero"/><path fill="#ffffff" d="m224.06824 45.788715l28.692917 0l0 28.692913l-28.692917 0z" fill-rule="evenodd"/><path stroke="#000000" stroke-width="1.0" stroke-linejoin="round" stroke-linecap="butt" d="m224.06824 45.788715l28.692917 0l0 28.692913l-28.692917 0z" fill-rule="evenodd"/><path fill="#000000" d="m233.95886 55.445793l0 -1.578125l8.640625 0l0 1.28125q-1.28125 1.359375 -2.53125 3.609375q-1.25 2.25 -1.9375 4.625q-0.484375 1.671875 -0.625 3.671875l-1.6875 0q0.03125 -1.578125 0.625 -3.8125q0.59375 -2.234375 1.6875 -4.296875q1.109375 -2.078125 2.359375 -3.5l-6.53125 0z" fill-rule="nonzero"/><path fill="#ffffff" d="m252.76115 45.788715l28.692917 0l0 28.692913l-28.692917 0z" fill-rule="evenodd"/><path stroke="#000000" stroke-width="1.0" stroke-linejoin="round" stroke-linecap="butt" d="m252.76115 45.788715l28.692917 0l0 28.692913l-28.692917 0z" fill-rule="evenodd"/><path fill="#000000" d="m262.54242 63.52392l1.640625 -0.21875q0.28125 1.40625 0.953125 2.015625q0.6875 0.609375 1.65625 0.609375q1.15625 0 1.953125 -0.796875q0.796875 -0.796875 0.796875 -1.984375q0 -1.125 -0.734375 -1.859375q-0.734375 -0.734375 -1.875 -0.734375q-0.46875 0 -1.15625 0.171875l0.1875 -1.4375q0.15625 0.015625 0.265625 0.015625q1.046875 0 1.875 -0.546875q0.84375 -0.546875 0.84375 -1.671875q0 -0.90625 -0.609375 -1.5q-0.609375 -0.59375 -1.578125 -0.59375q-0.953125 0 -1.59375 0.609375q-0.640625 0.59375 -0.8125 1.796875l-1.640625 -0.296875q0.296875 -1.640625 1.359375 -2.546875q1.0625 -0.90625 2.65625 -0.90625q1.09375 0 2.0 0.46875q0.921875 0.46875 1.40625 1.28125q0.5 0.8125 0.5 1.71875q0 0.859375 -0.46875 1.578125q-0.46875 0.703125 -1.375 1.125q1.1875 0.28125 1.84375 1.140625q0.65625 0.859375 0.65625 2.15625q0 1.734375 -1.28125 2.953125q-1.265625 1.21875 -3.21875 1.21875q-1.765625 0 -2.921875 -1.046875q-1.15625 -1.046875 -1.328125 -2.71875z" fill-rule="nonzero"/><path fill="#ffffff" d="m281.45407 45.788715l28.692902 0l0 28.692913l-28.692902 0z" fill-rule="evenodd"/><path stroke="#000000" stroke-width="1.0" stroke-linejoin="round" stroke-linecap="butt" d="m281.45407 45.788715l28.692902 0l0 28.692913l-28.692902 0z" fill-rule="evenodd"/><path fill="#000000" d="m291.23532 63.52392l1.640625 -0.21875q0.28125 1.40625 0.953125 2.015625q0.6875 0.609375 1.65625 0.609375q1.15625 0 1.953125 -0.796875q0.796875 -0.796875 0.796875 -1.984375q0 -1.125 -0.734375 -1.859375q-0.734375 -0.734375 -1.875 -0.734375q-0.46875 0 -1.15625 0.171875l0.1875 -1.4375q0.15625 0.015625 0.265625 0.015625q1.046875 0 1.875 -0.546875q0.84375 -0.546875 0.84375 -1.671875q0 -0.90625 -0.609375 -1.5q-0.609375 -0.59375 -1.578125 -0.59375q-0.953125 0 -1.59375 0.609375q-0.640625 0.59375 -0.8125 1.796875l-1.640625 -0.296875q0.296875 -1.640625 1.359375 -2.546875q1.0625 -0.90625 2.65625 -0.90625q1.09375 0 2.0 0.46875q0.921875 0.46875 1.40625 1.28125q0.5 0.8125 0.5 1.71875q0 0.859375 -0.46875 1.578125q-0.46875 0.703125 -1.375 1.125q1.1875 0.28125 1.84375 1.140625q0.65625 0.859375 0.65625 2.15625q0 1.734375 -1.28125 2.953125q-1.265625 1.21875 -3.21875 1.21875q-1.765625 0 -2.921875 -1.046875q-1.15625 -1.046875 -1.328125 -2.71875z" fill-rule="nonzero"/><path fill="#ffffff" d="m310.14697 45.788715l28.692932 0l0 28.692913l-28.692932 0z" fill-rule="evenodd"/><path stroke="#000000" stroke-width="1.0" stroke-linejoin="round" stroke-linecap="butt" d="m310.14697 45.788715l28.692932 0l0 28.692913l-28.692932 0z" fill-rule="evenodd"/><path fill="#000000" d="m319.92822 63.55517l1.71875 -0.140625q0.1875 1.25 0.875 1.890625q0.703125 0.625 1.6875 0.625q1.1875 0 2.0 -0.890625q0.828125 -0.890625 0.828125 -2.359375q0 -1.40625 -0.796875 -2.21875q-0.78125 -0.8125 -2.0625 -0.8125q-0.78125 0 -1.421875 0.359375q-0.640625 0.359375 -1.0 0.9375l-1.546875 -0.203125l1.296875 -6.859375l6.640625 0l0 1.5625l-5.328125 0l-0.71875 3.59375q1.203125 -0.84375 2.515625 -0.84375q1.75 0 2.953125 1.21875q1.203125 1.203125 1.203125 3.109375q0 1.8125 -1.046875 3.140625q-1.296875 1.625 -3.515625 1.625q-1.8125 0 -2.96875 -1.015625q-1.15625 -1.03125 -1.3125 -2.71875z" fill-rule="nonzero"/><path fill="#ffffff" d="m338.8399 45.788715l28.692902 0l0 28.692913l-28.692902 0z" fill-rule="evenodd"/><path stroke="#000000" stroke-width="1.0" stroke-linejoin="round" stroke-linecap="butt" d="m338.8399 45.788715l28.692902 0l0 28.692913l-28.692902 0z" fill-rule="evenodd"/><path fill="#000000" d="m348.62115 63.55517l1.71875 -0.140625q0.1875 1.25 0.875 1.890625q0.703125 0.625 1.6875 0.625q1.1875 0 2.0 -0.890625q0.828125 -0.890625 0.828125 -2.359375q0 -1.40625 -0.796875 -2.21875q-0.78125 -0.8125 -2.0625 -0.8125q-0.78125 0 -1.421875 0.359375q-0.640625 0.359375 -1.0 0.9375l-1.546875 -0.203125l1.296875 -6.859375l6.640625 0l0 1.5625l-5.328125 0l-0.71875 3.59375q1.203125 -0.84375 2.515625 -0.84375q1.75 0 2.953125 1.21875q1.203125 1.203125 1.203125 3.109375q0 1.8125 -1.046875 3.140625q-1.296875 1.625 -3.515625 1.625q-1.8125 0 -2.96875 -1.015625q-1.15625 -1.03125 -1.3125 -2.71875z" fill-rule="nonzero"/><path fill="#ffffff" d="m367.5328 45.788715l28.692902 0l0 28.692913l-28.692902 0z" fill-rule="evenodd"/><path stroke="#000000" stroke-width="1.0" stroke-linejoin="round" stroke-linecap="butt" d="m367.5328 45.788715l28.692902 0l0 28.692913l-28.692902 0z" fill-rule="evenodd"/><path fill="#000000" d="m382.56406 67.05517l0 -3.203125l-5.796875 0l0 -1.5l6.09375 -8.65625l1.34375 0l0 8.65625l1.796875 0l0 1.5l-1.796875 0l0 3.203125l-1.640625 0zm0 -4.703125l0 -6.015625l-4.1875 6.015625l4.1875 0z" fill-rule="nonzero"/><path fill="#ffffff" d="m396.2257 45.788715l28.692932 0l0 28.692913l-28.692932 0z" fill-rule="evenodd"/><path stroke="#000000" stroke-width="1.0" stroke-linejoin="round" stroke-linecap="butt" d="m396.2257 45.788715l28.692932 0l0 28.692913l-28.692932 0z" fill-rule="evenodd"/><path fill="#000000" d="m408.52258 59.820793q-1.015625 -0.375 -1.515625 -1.0625q-0.484375 -0.703125 -0.484375 -1.671875q0 -1.453125 1.046875 -2.4375q1.046875 -1.0 2.78125 -1.0q1.75 0 2.8125 1.015625q1.078125 1.015625 1.078125 2.46875q0 0.9375 -0.5 1.625q-0.484375 0.6875 -1.46875 1.0625q1.21875 0.390625 1.859375 1.28125q0.65625 0.890625 0.65625 2.140625q0 1.703125 -1.21875 2.875q-1.21875 1.171875 -3.1875 1.171875q-1.984375 0 -3.203125 -1.171875q-1.203125 -1.171875 -1.203125 -2.921875q0 -1.3125 0.65625 -2.1875q0.671875 -0.875 1.890625 -1.1875zm-0.328125 -2.78125q0 0.9375 0.609375 1.546875q0.609375 0.59375 1.59375 0.59375q0.9375 0 1.546875 -0.59375q0.609375 -0.59375 0.609375 -1.453125q0 -0.90625 -0.625 -1.515625q-0.625 -0.625 -1.5625 -0.625q-0.9375 0 -1.5625 0.609375q-0.609375 0.59375 -0.609375 1.4375zm-0.53125 6.15625q0 0.703125 0.328125 1.359375q0.34375 0.65625 1.0 1.015625q0.65625 0.359375 1.40625 0.359375q1.171875 0 1.9375 -0.75q0.765625 -0.75 0.765625 -1.921875q0 -1.1875 -0.796875 -1.953125q-0.78125 -0.78125 -1.953125 -0.78125q-1.15625 0 -1.921875 0.765625q-0.765625 0.765625 -0.765625 1.90625z" fill-rule="nonzero"/><path fill="#ffffff" d="m424.91864 45.788715l28.692902 0l0 28.692913l-28.692902 0z" fill-rule="evenodd"/><path stroke="#000000" stroke-width="1.0" stroke-linejoin="round" stroke-linecap="butt" d="m424.91864 45.788715l28.692902 0l0 28.692913l-28.692902 0z" fill-rule="evenodd"/><path fill="#000000" d="m434.6999 63.55517l1.71875 -0.140625q0.1875 1.25 0.875 1.890625q0.703125 0.625 1.6875 0.625q1.1875 0 2.0 -0.890625q0.828125 -0.890625 0.828125 -2.359375q0 -1.40625 -0.796875 -2.21875q-0.78125 -0.8125 -2.0625 -0.8125q-0.78125 0 -1.421875 0.359375q-0.640625 0.359375 -1.0 0.9375l-1.546875 -0.203125l1.296875 -6.859375l6.640625 0l0 1.5625l-5.328125 0l-0.71875 3.59375q1.203125 -0.84375 2.515625 -0.84375q1.75 0 2.953125 1.21875q1.203125 1.203125 1.203125 3.109375q0 1.8125 -1.046875 3.140625q-1.296875 1.625 -3.515625 1.625q-1.8125 0 -2.96875 -1.015625q-1.15625 -1.03125 -1.3125 -2.71875z" fill-rule="nonzero"/><path fill="#ffffff" d="m453.61154 45.788715l28.692932 0l0 28.692913l-28.692932 0z" fill-rule="evenodd"/><path stroke="#000000" stroke-width="1.0" stroke-linejoin="round" stroke-linecap="butt" d="m453.61154 45.788715l28.692932 0l0 28.692913l-28.692932 0z" fill-rule="evenodd"/><path fill="#000000" d="m471.8928 56.977043l-1.625 0.125q-0.21875 -0.96875 -0.625 -1.40625q-0.65625 -0.703125 -1.640625 -0.703125q-0.78125 0 -1.375 0.4375q-0.765625 0.5625 -1.21875 1.65625q-0.453125 1.078125 -0.46875 3.078125q0.59375 -0.890625 1.453125 -1.328125q0.859375 -0.4375 1.796875 -0.4375q1.640625 0 2.78125 1.203125q1.15625 1.203125 1.15625 3.109375q0 1.265625 -0.546875 2.34375q-0.53125 1.078125 -1.484375 1.65625q-0.9375 0.578125 -2.140625 0.578125q-2.0625 0 -3.359375 -1.5q-1.28125 -1.515625 -1.28125 -4.984375q0 -3.875 1.421875 -5.625q1.25 -1.53125 3.375 -1.53125q1.5625 0 2.5625 0.890625q1.015625 0.875 1.21875 2.4375zm-6.6875 5.75q0 0.84375 0.359375 1.625q0.359375 0.765625 1.0 1.171875q0.640625 0.40625 1.359375 0.40625q1.03125 0 1.78125 -0.828125q0.75 -0.84375 0.75 -2.28125q0 -1.390625 -0.734375 -2.1875q-0.734375 -0.796875 -1.859375 -0.796875q-1.109375 0 -1.890625 0.796875q-0.765625 0.796875 -0.765625 2.09375z" fill-rule="nonzero"/><path fill="#ffffff" d="m23.217848 74.480316l28.692915 0l0 28.69291l-28.692915 0z" fill-rule="evenodd"/><path fill="#000000" d="m36.73347 91.9499l-1.78125 4.046875l-1.234375 0l1.78125 -4.046875l-2.578125 0l0 -1.53125l3.25 0l1.109375 -2.53125l-4.359375 0l0 -1.515625l5.03125 0l1.78125 -4.046875l1.21875 0l-1.78125 4.046875l2.578125 0l0 1.515625l-3.25 0l-1.09375 2.53125l4.34375 0l0 1.53125l-5.015625 0z" fill-rule="nonzero"/><path fill="#ffffff" d="m51.910763 74.480316l28.692913 0l0 28.69291l-28.692913 0z" fill-rule="evenodd"/><path fill="#000000" d="m70.770134 87.8874l-8.828121 0l0 -1.515625l8.828121 0l0 1.515625zm0 4.0625l-8.828121 0l0 -1.53125l8.828121 0l0 1.53125z" fill-rule="nonzero"/><path fill="#ffffff" d="m80.603676 74.480316l28.69291 0l0 28.69291l-28.69291 0z" fill-rule="evenodd"/><path fill="#000000" d="m94.1193 91.9499l-1.78125 4.046875l-1.234375 0l1.78125 -4.046875l-2.578125 0l0 -1.53125l3.25 0l1.109375 -2.53125l-4.359375 0l0 -1.515625l5.03125 0l1.78125 -4.046875l1.21875 0l-1.78125 4.046875l2.578125 0l0 1.515625l-3.25 0l-1.09375 2.53125l4.34375 0l0 1.53125l-5.015625 0z" fill-rule="nonzero"/><path fill="#ffffff" d="m109.296585 74.480316l28.692917 0l0 28.69291l-28.692917 0z" fill-rule="evenodd"/><path fill="#000000" d="m122.81221 91.9499l-1.78125 4.046875l-1.234375 0l1.78125 -4.046875l-2.578125 0l0 -1.53125l3.25 0l1.109375 -2.53125l-4.359375 0l0 -1.515625l5.03125 0l1.78125 -4.046875l1.21875 0l-1.78125 4.046875l2.578125 0l0 1.515625l-3.25 0l-1.09375 2.53125l4.34375 0l0 1.53125l-5.015625 0z" fill-rule="nonzero"/><path fill="#ffffff" d="m137.9895 74.480316l28.692917 0l0 28.69291l-28.692917 0z" fill-rule="evenodd"/><path fill="#000000" d="m151.50513 91.9499l-1.78125 4.046875l-1.234375 0l1.78125 -4.046875l-2.578125 0l0 -1.53125l3.25 0l1.109375 -2.53125l-4.359375 0l0 -1.515625l5.03125 0l1.78125 -4.046875l1.21875 0l-1.78125 4.046875l2.578125 0l0 1.515625l-3.25 0l-1.09375 2.53125l4.34375 0l0 1.53125l-5.015625 0z" fill-rule="nonzero"/><path fill="#ffffff" d="m166.68242 74.480316l28.692917 0l0 28.69291l-28.692917 0z" fill-rule="evenodd"/><path fill="#000000" d="m185.5418 87.8874l-8.828125 0l0 -1.515625l8.828125 0l0 1.515625zm0 4.0625l-8.828125 0l0 -1.53125l8.828125 0l0 1.53125z" fill-rule="nonzero"/><path fill="#ffffff" d="m195.37534 74.480316l28.692902 0l0 28.69291l-28.692902 0z" fill-rule="evenodd"/><path fill="#000000" d="m208.89096 91.9499l-1.78125 4.046875l-1.234375 0l1.78125 -4.046875l-2.578125 0l0 -1.53125l3.25 0l1.109375 -2.53125l-4.359375 0l0 -1.515625l5.03125 0l1.78125 -4.046875l1.21875 0l-1.78125 4.046875l2.578125 0l0 1.515625l-3.25 0l-1.09375 2.53125l4.34375 0l0 1.53125l-5.015625 0z" fill-rule="nonzero"/><path fill="#ffffff" d="m224.06824 74.480316l28.692917 0l0 28.69291l-28.692917 0z" fill-rule="evenodd"/><path fill="#000000" d="m237.58386 91.9499l-1.78125 4.046875l-1.234375 0l1.78125 -4.046875l-2.578125 0l0 -1.53125l3.25 0l1.109375 -2.53125l-4.359375 0l0 -1.515625l5.03125 0l1.78125 -4.046875l1.21875 0l-1.78125 4.046875l2.578125 0l0 1.515625l-3.25 0l-1.09375 2.53125l4.34375 0l0 1.53125l-5.015625 0z" fill-rule="nonzero"/><path fill="#ffffff" d="m252.76115 74.480316l28.692917 0l0 28.69291l-28.692917 0z" fill-rule="evenodd"/><path fill="#000000" d="m271.62054 87.8874l-8.828125 0l0 -1.515625l8.828125 0l0 1.515625zm0 4.0625l-8.828125 0l0 -1.53125l8.828125 0l0 1.53125z" fill-rule="nonzero"/><path fill="#ffffff" d="m281.45407 74.480316l28.692902 0l0 28.69291l-28.692902 0z" fill-rule="evenodd"/><path fill="#000000" d="m300.31345 87.8874l-8.828125 0l0 -1.515625l8.828125 0l0 1.515625zm0 4.0625l-8.828125 0l0 -1.53125l8.828125 0l0 1.53125z" fill-rule="nonzero"/><path fill="#ffffff" d="m310.14697 74.480316l28.692932 0l0 28.69291l-28.692932 0z" fill-rule="evenodd"/><path fill="#000000" d="m323.6626 91.9499l-1.78125 4.046875l-1.234375 0l1.78125 -4.046875l-2.578125 0l0 -1.53125l3.25 0l1.109375 -2.53125l-4.359375 0l0 -1.515625l5.03125 0l1.78125 -4.046875l1.21875 0l-1.78125 4.046875l2.578125 0l0 1.515625l-3.25 0l-1.09375 2.53125l4.34375 0l0 1.53125l-5.015625 0z" fill-rule="nonzero"/><path fill="#ffffff" d="m338.8399 74.480316l28.692902 0l0 28.69291l-28.692902 0z" fill-rule="evenodd"/><path fill="#000000" d="m352.35553 91.9499l-1.78125 4.046875l-1.234375 0l1.78125 -4.046875l-2.578125 0l0 -1.53125l3.25 0l1.109375 -2.53125l-4.359375 0l0 -1.515625l5.03125 0l1.78125 -4.046875l1.21875 0l-1.78125 4.046875l2.578125 0l0 1.515625l-3.25 0l-1.09375 2.53125l4.34375 0l0 1.53125l-5.015625 0z" fill-rule="nonzero"/><path fill="#ffffff" d="m367.5328 74.480316l28.692902 0l0 28.69291l-28.692902 0z" fill-rule="evenodd"/><path fill="#000000" d="m381.04843 91.9499l-1.78125 4.046875l-1.234375 0l1.78125 -4.046875l-2.578125 0l0 -1.53125l3.25 0l1.109375 -2.53125l-4.359375 0l0 -1.515625l5.03125 0l1.78125 -4.046875l1.21875 0l-1.78125 4.046875l2.578125 0l0 1.515625l-3.25 0l-1.09375 2.53125l4.34375 0l0 1.53125l-5.015625 0z" fill-rule="nonzero"/><path fill="#ffffff" d="m396.2257 74.480316l28.692932 0l0 28.69291l-28.692932 0z" fill-rule="evenodd"/><path fill="#000000" d="m409.74133 91.9499l-1.78125 4.046875l-1.234375 0l1.78125 -4.046875l-2.578125 0l0 -1.53125l3.25 0l1.109375 -2.53125l-4.359375 0l0 -1.515625l5.03125 0l1.78125 -4.046875l1.21875 0l-1.78125 4.046875l2.578125 0l0 1.515625l-3.25 0l-1.09375 2.53125l4.34375 0l0 1.53125l-5.015625 0z" fill-rule="nonzero"/><path fill="#ffffff" d="m424.91864 74.480316l28.692902 0l0 28.69291l-28.692902 0z" fill-rule="evenodd"/><path fill="#000000" d="m438.43427 91.9499l-1.78125 4.046875l-1.234375 0l1.78125 -4.046875l-2.578125 0l0 -1.53125l3.25 0l1.109375 -2.53125l-4.359375 0l0 -1.515625l5.03125 0l1.78125 -4.046875l1.21875 0l-1.78125 4.046875l2.578125 0l0 1.515625l-3.25 0l-1.09375 2.53125l4.34375 0l0 1.53125l-5.015625 0z" fill-rule="nonzero"/><path fill="#ffffff" d="m453.61154 74.480316l28.692932 0l0 28.69291l-28.692932 0z" fill-rule="evenodd"/><path fill="#000000" d="m467.12717 91.9499l-1.78125 4.046875l-1.234375 0l1.78125 -4.046875l-2.578125 0l0 -1.53125l3.25 0l1.109375 -2.53125l-4.359375 0l0 -1.515625l5.03125 0l1.78125 -4.046875l1.21875 0l-1.78125 4.046875l2.578125 0l0 1.515625l-3.25 0l-1.09375 2.53125l4.34375 0l0 1.53125l-5.015625 0z" fill-rule="nonzero"/><path fill="#ffffff" d="m23.217848 160.55905l28.692915 0l0 28.692917l-28.692915 0z" fill-rule="evenodd"/><path stroke="#000000" stroke-width="1.0" stroke-linejoin="round" stroke-linecap="butt" d="m23.217848 160.55905l28.692915 0l0 28.692917l-28.692915 0z" fill-rule="evenodd"/><path fill="#000000" d="m39.42097 172.40364q-0.890625 -1.046875 -2.453125 -1.046875q-1.5625 0 -2.59375 1.046875q-1.046875 1.03125 -1.046875 2.59375q0 1.109375 0.828125 2.21875l5.265625 -4.8125zm-2.453125 6.234375q1.5625 0 2.59375 -1.046875q1.046875 -1.03125 1.046875 -2.59375q0 -1.265625 -0.75 -2.234375l-5.34375 4.90625q1.046875 0.96875 2.453125 0.96875zm0 0.515625q-1.5625 0 -2.8125 -1.109375l-1.125 0.953125l-0.4375 -0.4375l1.109375 -0.96875q-0.890625 -1.03125 -0.890625 -2.59375q0 -1.78125 1.109375 -2.890625q1.265625 -1.265625 3.046875 -1.265625q1.703125 0 2.828125 1.109375l1.1875 -1.03125l0.4375 0.4375l-1.1875 1.046875q0.890625 1.109375 0.890625 2.59375q0 1.78125 -1.03125 2.8125q-1.34375 1.34375 -3.125 1.34375z" fill-rule="nonzero"/><path fill="#ffffff" d="m51.910763 160.55905l28.692913 0l0 28.692917l-28.692913 0z" fill-rule="evenodd"/><path stroke="#000000" stroke-width="1.0" stroke-linejoin="round" stroke-linecap="butt" d="m51.910763 160.55905l28.692913 0l0 28.692917l-28.692913 0z" fill-rule="evenodd"/><path fill="#000000" d="m67.863884 181.82552l-1.640625 0l0 -10.453125q-0.59375 0.5625 -1.5625 1.140625q-0.9531212 0.5625 -1.7187462 0.84375l0 -1.59375q1.3749962 -0.640625 2.4062462 -1.5625q1.03125 -0.921875 1.453125 -1.78125l1.0625 0l0 13.40625z" fill-rule="nonzero"/><path fill="#ffffff" d="m80.603676 160.55905l28.69291 0l0 28.692917l-28.69291 0z" fill-rule="evenodd"/><path stroke="#000000" stroke-width="1.0" stroke-linejoin="round" stroke-linecap="butt" d="m80.603676 160.55905l28.69291 0l0 28.692917l-28.69291 0z" fill-rule="evenodd"/><path fill="#000000" d="m96.8068 172.40364q-0.890625 -1.046875 -2.453125 -1.046875q-1.5625 0 -2.59375 1.046875q-1.046875 1.03125 -1.046875 2.59375q0 1.109375 0.828125 2.21875l5.265625 -4.8125zm-2.453125 6.234375q1.5625 0 2.59375 -1.046875q1.046875 -1.03125 1.046875 -2.59375q0 -1.265625 -0.75 -2.234375l-5.34375 4.90625q1.046875 0.96875 2.453125 0.96875zm0 0.515625q-1.5625 0 -2.8125 -1.109375l-1.125 0.953125l-0.4375 -0.4375l1.109375 -0.96875q-0.890625 -1.03125 -0.890625 -2.59375q0 -1.78125 1.109375 -2.890625q1.265625 -1.265625 3.046875 -1.265625q1.703125 0 2.828125 1.109375l1.1875 -1.03125l0.4375 0.4375l-1.1875 1.046875q0.890625 1.109375 0.890625 2.59375q0 1.78125 -1.03125 2.8125q-1.34375 1.34375 -3.125 1.34375z" fill-rule="nonzero"/><path fill="#ffffff" d="m109.296585 160.55905l28.692917 0l0 28.692917l-28.692917 0z" fill-rule="evenodd"/><path stroke="#000000" stroke-width="1.0" stroke-linejoin="round" stroke-linecap="butt" d="m109.296585 160.55905l28.692917 0l0 28.692917l-28.692917 0z" fill-rule="evenodd"/><path fill="#000000" d="m125.49971 172.40364q-0.890625 -1.046875 -2.453125 -1.046875q-1.5625 0 -2.59375 1.046875q-1.046875 1.03125 -1.046875 2.59375q0 1.109375 0.828125 2.21875l5.265625 -4.8125zm-2.453125 6.234375q1.5625 0 2.59375 -1.046875q1.046875 -1.03125 1.046875 -2.59375q0 -1.265625 -0.75 -2.234375l-5.34375 4.90625q1.046875 0.96875 2.453125 0.96875zm0 0.515625q-1.5625 0 -2.8125 -1.109375l-1.125 0.953125l-0.4375 -0.4375l1.109375 -0.96875q-0.890625 -1.03125 -0.890625 -2.59375q0 -1.78125 1.109375 -2.890625q1.265625 -1.265625 3.046875 -1.265625q1.703125 0 2.828125 1.109375l1.1875 -1.03125l0.4375 0.4375l-1.1875 1.046875q0.890625 1.109375 0.890625 2.59375q0 1.78125 -1.03125 2.8125q-1.34375 1.34375 -3.125 1.34375z" fill-rule="nonzero"/><path fill="#ffffff" d="m137.9895 160.55905l28.692917 0l0 28.692917l-28.692917 0z" fill-rule="evenodd"/><path stroke="#000000" stroke-width="1.0" stroke-linejoin="round" stroke-linecap="butt" d="m137.9895 160.55905l28.692917 0l0 28.692917l-28.692917 0z" fill-rule="evenodd"/><path fill="#000000" d="m154.19263 172.40364q-0.890625 -1.046875 -2.453125 -1.046875q-1.5625 0 -2.59375 1.046875q-1.046875 1.03125 -1.046875 2.59375q0 1.109375 0.828125 2.21875l5.265625 -4.8125zm-2.453125 6.234375q1.5625 0 2.59375 -1.046875q1.046875 -1.03125 1.046875 -2.59375q0 -1.265625 -0.75 -2.234375l-5.34375 4.90625q1.046875 0.96875 2.453125 0.96875zm0 0.515625q-1.5625 0 -2.8125 -1.109375l-1.125 0.953125l-0.4375 -0.4375l1.109375 -0.96875q-0.890625 -1.03125 -0.890625 -2.59375q0 -1.78125 1.109375 -2.890625q1.265625 -1.265625 3.046875 -1.265625q1.703125 0 2.828125 1.109375l1.1875 -1.03125l0.4375 0.4375l-1.1875 1.046875q0.890625 1.109375 0.890625 2.59375q0 1.78125 -1.03125 2.8125q-1.34375 1.34375 -3.125 1.34375z" fill-rule="nonzero"/><path fill="#ffffff" d="m166.68242 160.55905l28.692917 0l0 28.692917l-28.692917 0z" fill-rule="evenodd"/><path stroke="#000000" stroke-width="1.0" stroke-linejoin="round" stroke-linecap="butt" d="m166.68242 160.55905l28.692917 0l0 28.692917l-28.692917 0z" fill-rule="evenodd"/><path fill="#000000" d="m176.46367 178.32552l1.71875 -0.140625q0.1875 1.25 0.875 1.890625q0.703125 0.625 1.6875 0.625q1.1875 0 2.0 -0.890625q0.828125 -0.890625 0.828125 -2.359375q0 -1.40625 -0.796875 -2.21875q-0.78125 -0.8125 -2.0625 -0.8125q-0.78125 0 -1.421875 0.359375q-0.640625 0.359375 -1.0 0.9375l-1.546875 -0.203125l1.296875 -6.859375l6.640625 0l0 1.5625l-5.328125 0l-0.71875 3.59375q1.203125 -0.84375 2.515625 -0.84375q1.75 0 2.953125 1.21875q1.203125 1.203125 1.203125 3.109375q0 1.8125 -1.046875 3.140625q-1.296875 1.625 -3.515625 1.625q-1.8125 0 -2.96875 -1.015625q-1.15625 -1.03125 -1.3125 -2.71875z" fill-rule="nonzero"/><path fill="#ffffff" d="m195.37534 160.55905l28.692902 0l0 28.692917l-28.692902 0z" fill-rule="evenodd"/><path stroke="#000000" stroke-width="1.0" stroke-linejoin="round" stroke-linecap="butt" d="m195.37534 160.55905l28.692902 0l0 28.692917l-28.692902 0z" fill-rule="evenodd"/><path fill="#000000" d="m211.57846 172.40364q-0.890625 -1.046875 -2.453125 -1.046875q-1.5625 0 -2.59375 1.046875q-1.046875 1.03125 -1.046875 2.59375q0 1.109375 0.828125 2.21875l5.265625 -4.8125zm-2.453125 6.234375q1.5625 0 2.59375 -1.046875q1.046875 -1.03125 1.046875 -2.59375q0 -1.265625 -0.75 -2.234375l-5.34375 4.90625q1.046875 0.96875 2.453125 0.96875zm0 0.515625q-1.5625 0 -2.8125 -1.109375l-1.125 0.953125l-0.4375 -0.4375l1.109375 -0.96875q-0.890625 -1.03125 -0.890625 -2.59375q0 -1.78125 1.109375 -2.890625q1.265625 -1.265625 3.046875 -1.265625q1.703125 0 2.828125 1.109375l1.1875 -1.03125l0.4375 0.4375l-1.1875 1.046875q0.890625 1.109375 0.890625 2.59375q0 1.78125 -1.03125 2.8125q-1.34375 1.34375 -3.125 1.34375z" fill-rule="nonzero"/><path fill="#ffffff" d="m224.06824 160.55905l28.692917 0l0 28.692917l-28.692917 0z" fill-rule="evenodd"/><path stroke="#000000" stroke-width="1.0" stroke-linejoin="round" stroke-linecap="butt" d="m224.06824 160.55905l28.692917 0l0 28.692917l-28.692917 0z" fill-rule="evenodd"/><path fill="#000000" d="m240.27136 172.40364q-0.890625 -1.046875 -2.453125 -1.046875q-1.5625 0 -2.59375 1.046875q-1.046875 1.03125 -1.046875 2.59375q0 1.109375 0.828125 2.21875l5.265625 -4.8125zm-2.453125 6.234375q1.5625 0 2.59375 -1.046875q1.046875 -1.03125 1.046875 -2.59375q0 -1.265625 -0.75 -2.234375l-5.34375 4.90625q1.046875 0.96875 2.453125 0.96875zm0 0.515625q-1.5625 0 -2.8125 -1.109375l-1.125 0.953125l-0.4375 -0.4375l1.109375 -0.96875q-0.890625 -1.03125 -0.890625 -2.59375q0 -1.78125 1.109375 -2.890625q1.265625 -1.265625 3.046875 -1.265625q1.703125 0 2.828125 1.109375l1.1875 -1.03125l0.4375 0.4375l-1.1875 1.046875q0.890625 1.109375 0.890625 2.59375q0 1.78125 -1.03125 2.8125q-1.34375 1.34375 -3.125 1.34375z" fill-rule="nonzero"/><path fill="#ffffff" d="m252.76115 160.55905l28.692917 0l0 28.692917l-28.692917 0z" fill-rule="evenodd"/><path stroke="#000000" stroke-width="1.0" stroke-linejoin="round" stroke-linecap="butt" d="m252.76115 160.55905l28.692917 0l0 28.692917l-28.692917 0z" fill-rule="evenodd"/><path fill="#000000" d="m265.05804 174.59114q-1.015625 -0.375 -1.515625 -1.0625q-0.484375 -0.703125 -0.484375 -1.671875q0 -1.453125 1.046875 -2.4375q1.046875 -1.0 2.78125 -1.0q1.75 0 2.8125 1.015625q1.078125 1.015625 1.078125 2.46875q0 0.9375 -0.5 1.625q-0.484375 0.6875 -1.46875 1.0625q1.21875 0.390625 1.859375 1.28125q0.65625 0.890625 0.65625 2.140625q0 1.703125 -1.21875 2.875q-1.21875 1.171875 -3.1875 1.171875q-1.984375 0 -3.203125 -1.171875q-1.203125 -1.171875 -1.203125 -2.921875q0 -1.3125 0.65625 -2.1875q0.671875 -0.875 1.890625 -1.1875zm-0.328125 -2.78125q0 0.9375 0.609375 1.546875q0.609375 0.59375 1.59375 0.59375q0.9375 0 1.546875 -0.59375q0.609375 -0.59375 0.609375 -1.453125q0 -0.90625 -0.625 -1.515625q-0.625 -0.625 -1.5625 -0.625q-0.9375 0 -1.5625 0.609375q-0.609375 0.59375 -0.609375 1.4375zm-0.53125 6.15625q0 0.703125 0.328125 1.359375q0.34375 0.65625 1.0 1.015625q0.65625 0.359375 1.40625 0.359375q1.171875 0 1.9375 -0.75q0.765625 -0.75 0.765625 -1.921875q0 -1.1875 -0.796875 -1.953125q-0.78125 -0.78125 -1.953125 -0.78125q-1.15625 0 -1.921875 0.765625q-0.765625 0.765625 -0.765625 1.90625z" fill-rule="nonzero"/><path fill="#ffffff" d="m281.45407 160.55905l28.692902 0l0 28.692917l-28.692902 0z" fill-rule="evenodd"/><path stroke="#000000" stroke-width="1.0" stroke-linejoin="round" stroke-linecap="butt" d="m281.45407 160.55905l28.692902 0l0 28.692917l-28.692902 0z" fill-rule="evenodd"/><path fill="#000000" d="m291.4697 178.73177l1.578125 -0.140625q0.203125 1.109375 0.765625 1.609375q0.5625 0.5 1.453125 0.5q0.75 0 1.3125 -0.34375q0.578125 -0.34375 0.9375 -0.921875q0.375 -0.578125 0.609375 -1.5625q0.25 -0.984375 0.25 -2.0q0 -0.109375 0 -0.328125q-0.5 0.78125 -1.359375 1.265625q-0.84375 0.484375 -1.828125 0.484375q-1.671875 0 -2.8125 -1.203125q-1.140625 -1.203125 -1.140625 -3.171875q0 -2.03125 1.1875 -3.265625q1.203125 -1.234375 3.0 -1.234375q1.3125 0 2.390625 0.703125q1.078125 0.703125 1.640625 2.0q0.5625 1.296875 0.5625 3.75q0 2.5625 -0.5625 4.078125q-0.5625 1.515625 -1.65625 2.3125q-1.09375 0.796875 -2.578125 0.796875q-1.5625 0 -2.5625 -0.875q-0.984375 -0.875 -1.1875 -2.453125zm6.71875 -5.890625q0 -1.40625 -0.75 -2.234375q-0.75 -0.828125 -1.8125 -0.828125q-1.09375 0 -1.90625 0.890625q-0.8125 0.890625 -0.8125 2.3125q0 1.28125 0.765625 2.078125q0.78125 0.796875 1.90625 0.796875q1.140625 0 1.875 -0.796875q0.734375 -0.796875 0.734375 -2.21875z" fill-rule="nonzero"/><path fill="#ffffff" d="m310.14697 160.55905l28.692932 0l0 28.692917l-28.692932 0z" fill-rule="evenodd"/><path stroke="#000000" stroke-width="1.0" stroke-linejoin="round" stroke-linecap="butt" d="m310.14697 160.55905l28.692932 0l0 28.692917l-28.692932 0z" fill-rule="evenodd"/><path fill="#000000" d="m326.3501 172.40364q-0.890625 -1.046875 -2.453125 -1.046875q-1.5625 0 -2.59375 1.046875q-1.046875 1.03125 -1.046875 2.59375q0 1.109375 0.828125 2.21875l5.265625 -4.8125zm-2.453125 6.234375q1.5625 0 2.59375 -1.046875q1.046875 -1.03125 1.046875 -2.59375q0 -1.265625 -0.75 -2.234375l-5.34375 4.90625q1.046875 0.96875 2.453125 0.96875zm0 0.515625q-1.5625 0 -2.8125 -1.109375l-1.125 0.953125l-0.4375 -0.4375l1.109375 -0.96875q-0.890625 -1.03125 -0.890625 -2.59375q0 -1.78125 1.109375 -2.890625q1.265625 -1.265625 3.046875 -1.265625q1.703125 0 2.828125 1.109375l1.1875 -1.03125l0.4375 0.4375l-1.1875 1.046875q0.890625 1.109375 0.890625 2.59375q0 1.78125 -1.03125 2.8125q-1.34375 1.34375 -3.125 1.34375z" fill-rule="nonzero"/><path fill="#ffffff" d="m338.8399 160.55905l28.692902 0l0 28.692917l-28.692902 0z" fill-rule="evenodd"/><path stroke="#000000" stroke-width="1.0" stroke-linejoin="round" stroke-linecap="butt" d="m338.8399 160.55905l28.692902 0l0 28.692917l-28.692902 0z" fill-rule="evenodd"/><path fill="#000000" d="m355.04303 172.40364q-0.890625 -1.046875 -2.453125 -1.046875q-1.5625 0 -2.59375 1.046875q-1.046875 1.03125 -1.046875 2.59375q0 1.109375 0.828125 2.21875l5.265625 -4.8125zm-2.453125 6.234375q1.5625 0 2.59375 -1.046875q1.046875 -1.03125 1.046875 -2.59375q0 -1.265625 -0.75 -2.234375l-5.34375 4.90625q1.046875 0.96875 2.453125 0.96875zm0 0.515625q-1.5625 0 -2.8125 -1.109375l-1.125 0.953125l-0.4375 -0.4375l1.109375 -0.96875q-0.890625 -1.03125 -0.890625 -2.59375q0 -1.78125 1.109375 -2.890625q1.265625 -1.265625 3.046875 -1.265625q1.703125 0 2.828125 1.109375l1.1875 -1.03125l0.4375 0.4375l-1.1875 1.046875q0.890625 1.109375 0.890625 2.59375q0 1.78125 -1.03125 2.8125q-1.34375 1.34375 -3.125 1.34375z" fill-rule="nonzero"/><path fill="#ffffff" d="m367.5328 160.55905l28.692902 0l0 28.692917l-28.692902 0z" fill-rule="evenodd"/><path stroke="#000000" stroke-width="1.0" stroke-linejoin="round" stroke-linecap="butt" d="m367.5328 160.55905l28.692902 0l0 28.692917l-28.692902 0z" fill-rule="evenodd"/><path fill="#000000" d="m383.73593 172.40364q-0.890625 -1.046875 -2.453125 -1.046875q-1.5625 0 -2.59375 1.046875q-1.046875 1.03125 -1.046875 2.59375q0 1.109375 0.828125 2.21875l5.265625 -4.8125zm-2.453125 6.234375q1.5625 0 2.59375 -1.046875q1.046875 -1.03125 1.046875 -2.59375q0 -1.265625 -0.75 -2.234375l-5.34375 4.90625q1.046875 0.96875 2.453125 0.96875zm0 0.515625q-1.5625 0 -2.8125 -1.109375l-1.125 0.953125l-0.4375 -0.4375l1.109375 -0.96875q-0.890625 -1.03125 -0.890625 -2.59375q0 -1.78125 1.109375 -2.890625q1.265625 -1.265625 3.046875 -1.265625q1.703125 0 2.828125 1.109375l1.1875 -1.03125l0.4375 0.4375l-1.1875 1.046875q0.890625 1.109375 0.890625 2.59375q0 1.78125 -1.03125 2.8125q-1.34375 1.34375 -3.125 1.34375z" fill-rule="nonzero"/><path fill="#ffffff" d="m396.2257 160.55905l28.692932 0l0 28.692917l-28.692932 0z" fill-rule="evenodd"/><path stroke="#000000" stroke-width="1.0" stroke-linejoin="round" stroke-linecap="butt" d="m396.2257 160.55905l28.692932 0l0 28.692917l-28.692932 0z" fill-rule="evenodd"/><path fill="#000000" d="m412.42883 172.40364q-0.890625 -1.046875 -2.453125 -1.046875q-1.5625 0 -2.59375 1.046875q-1.046875 1.03125 -1.046875 2.59375q0 1.109375 0.828125 2.21875l5.265625 -4.8125zm-2.453125 6.234375q1.5625 0 2.59375 -1.046875q1.046875 -1.03125 1.046875 -2.59375q0 -1.265625 -0.75 -2.234375l-5.34375 4.90625q1.046875 0.96875 2.453125 0.96875zm0 0.515625q-1.5625 0 -2.8125 -1.109375l-1.125 0.953125l-0.4375 -0.4375l1.109375 -0.96875q-0.890625 -1.03125 -0.890625 -2.59375q0 -1.78125 1.109375 -2.890625q1.265625 -1.265625 3.046875 -1.265625q1.703125 0 2.828125 1.109375l1.1875 -1.03125l0.4375 0.4375l-1.1875 1.046875q0.890625 1.109375 0.890625 2.59375q0 1.78125 -1.03125 2.8125q-1.34375 1.34375 -3.125 1.34375z" fill-rule="nonzero"/><path fill="#ffffff" d="m424.91864 160.55905l28.692902 0l0 28.692917l-28.692902 0z" fill-rule="evenodd"/><path stroke="#000000" stroke-width="1.0" stroke-linejoin="round" stroke-linecap="butt" d="m424.91864 160.55905l28.692902 0l0 28.692917l-28.692902 0z" fill-rule="evenodd"/><path fill="#000000" d="m441.12177 172.40364q-0.890625 -1.046875 -2.453125 -1.046875q-1.5625 0 -2.59375 1.046875q-1.046875 1.03125 -1.046875 2.59375q0 1.109375 0.828125 2.21875l5.265625 -4.8125zm-2.453125 6.234375q1.5625 0 2.59375 -1.046875q1.046875 -1.03125 1.046875 -2.59375q0 -1.265625 -0.75 -2.234375l-5.34375 4.90625q1.046875 0.96875 2.453125 0.96875zm0 0.515625q-1.5625 0 -2.8125 -1.109375l-1.125 0.953125l-0.4375 -0.4375l1.109375 -0.96875q-0.890625 -1.03125 -0.890625 -2.59375q0 -1.78125 1.109375 -2.890625q1.265625 -1.265625 3.046875 -1.265625q1.703125 0 2.828125 1.109375l1.1875 -1.03125l0.4375 0.4375l-1.1875 1.046875q0.890625 1.109375 0.890625 2.59375q0 1.78125 -1.03125 2.8125q-1.34375 1.34375 -3.125 1.34375z" fill-rule="nonzero"/><path fill="#ffffff" d="m453.61154 160.55905l28.692932 0l0 28.692917l-28.692932 0z" fill-rule="evenodd"/><path stroke="#000000" stroke-width="1.0" stroke-linejoin="round" stroke-linecap="butt" d="m453.61154 160.55905l28.692932 0l0 28.692917l-28.692932 0z" fill-rule="evenodd"/><path fill="#000000" d="m469.81467 172.40364q-0.890625 -1.046875 -2.453125 -1.046875q-1.5625 0 -2.59375 1.046875q-1.046875 1.03125 -1.046875 2.59375q0 1.109375 0.828125 2.21875l5.265625 -4.8125zm-2.453125 6.234375q1.5625 0 2.59375 -1.046875q1.046875 -1.03125 1.046875 -2.59375q0 -1.265625 -0.75 -2.234375l-5.34375 4.90625q1.046875 0.96875 2.453125 0.96875zm0 0.515625q-1.5625 0 -2.8125 -1.109375l-1.125 0.953125l-0.4375 -0.4375l1.109375 -0.96875q-0.890625 -1.03125 -0.890625 -2.59375q0 -1.78125 1.109375 -2.890625q1.265625 -1.265625 3.046875 -1.265625q1.703125 0 2.828125 1.109375l1.1875 -1.03125l0.4375 0.4375l-1.1875 1.046875q0.890625 1.109375 0.890625 2.59375q0 1.78125 -1.03125 2.8125q-1.34375 1.34375 -3.125 1.34375z" fill-rule="nonzero"/><path fill="#000000" fill-opacity="0.0" d="m50.09186 17.094488l31.118114 0l0 28.692915l-31.118114 0z" fill-rule="evenodd"/><path fill="#000000" d="m59.87311 36.334488l0 -7.625l2.46875 0q1.40625 0 1.8281288 0.109375q0.65625 0.171875 1.09375 0.75q0.453125 0.578125 0.453125 1.484375q0 0.703125 -0.265625 1.1875q-0.25 0.46875 -0.640625 0.75q-0.390625 0.265625 -0.796875 0.359375q-0.5625038 0.109375 -1.6093788 0.109375l-1.0 0l0 2.875l-1.53125 0zm1.53125 -6.34375l0 2.171875l0.84375 0q0.90625 0 1.21875 -0.109375q0.3125 -0.125 0.484375 -0.375q0.17187881 -0.265625 0.17187881 -0.609375q0 -0.40625 -0.2500038 -0.671875q-0.234375 -0.28125 -0.609375 -0.34375q-0.28125 -0.0625 -1.109375 -0.0625l-0.75 0z" fill-rule="nonzero"/><path fill="#000000" d="m69.79325 39.428238l0 0.90625l-3.421875 0q0.0625 -0.515625 0.328125 -0.96875q0.28125 -0.46875 1.109375 -1.21875q0.65625 -0.625 0.8125 -0.84375q0.203125 -0.296875 0.203125 -0.59375q0 -0.328125 -0.1875 -0.5q-0.171875 -0.171875 -0.484375 -0.171875q-0.296875 0 -0.484375 0.1875q-0.171875 0.171875 -0.203125 0.609375l-0.96875 -0.109375q0.078125 -0.796875 0.53125 -1.140625q0.46875 -0.359375 1.15625 -0.359375q0.75 0 1.171875 0.40625q0.4375 0.40625 0.4375 1.015625q0 0.34375 -0.125 0.65625q-0.125 0.296875 -0.390625 0.640625q-0.171875 0.234375 -0.640625 0.65625q-0.453125 0.421875 -0.578125 0.5625q-0.125 0.140625 -0.203125 0.265625l1.9375 0z" fill-rule="nonzero"/><path fill="#ffffff" d="m23.217848 103.173225l28.692915 0l0 28.69291l-28.692915 0z" fill-rule="evenodd"/><path stroke="#000000" stroke-width="1.0" stroke-linejoin="round" stroke-linecap="butt" d="m23.217848 103.173225l28.692915 0l0 28.69291l-28.692915 0z" fill-rule="evenodd"/><path fill="#000000" d="m32.999096 120.90843l1.640625 -0.21875q0.28125 1.40625 0.953125 2.015625q0.6875 0.609375 1.65625 0.609375q1.15625 0 1.953125 -0.796875q0.796875 -0.796875 0.796875 -1.984375q0 -1.125 -0.734375 -1.859375q-0.734375 -0.734375 -1.875 -0.734375q-0.46875 0 -1.15625 0.171875l0.1875 -1.4375q0.15625 0.015625 0.265625 0.015625q1.046875 0 1.875 -0.546875q0.84375 -0.546875 0.84375 -1.671875q0 -0.90625 -0.609375 -1.5q-0.609375 -0.59375 -1.578125 -0.59375q-0.953125 0 -1.59375 0.609375q-0.640625 0.59375 -0.8125 1.796875l-1.640625 -0.296875q0.296875 -1.640625 1.359375 -2.546875q1.0625 -0.90625 2.65625 -0.90625q1.09375 0 2.0 0.46875q0.921875 0.46875 1.40625 1.28125q0.5 0.8125 0.5 1.71875q0 0.859375 -0.46875 1.578125q-0.46875 0.703125 -1.375 1.125q1.1875 0.28125 1.84375 1.140625q0.65625 0.859375 0.65625 2.15625q0 1.734375 -1.28125 2.953125q-1.265625 1.21875 -3.21875 1.21875q-1.765625 0 -2.921875 -1.046875q-1.15625 -1.046875 -1.328125 -2.71875z" fill-rule="nonzero"/><path fill="#ffffff" d="m51.910763 103.173225l28.692913 0l0 28.69291l-28.692913 0z" fill-rule="evenodd"/><path stroke="#000000" stroke-width="1.0" stroke-linejoin="round" stroke-linecap="butt" d="m51.910763 103.173225l28.692913 0l0 28.69291l-28.692913 0z" fill-rule="evenodd"/><path fill="#000000" d="m61.692013 120.90843l1.640625 -0.21875q0.28125 1.40625 0.9531212 2.015625q0.6875 0.609375 1.65625 0.609375q1.15625 0 1.953125 -0.796875q0.796875 -0.796875 0.796875 -1.984375q0 -1.125 -0.734375 -1.859375q-0.734375 -0.734375 -1.875 -0.734375q-0.46875 0 -1.15625 0.171875l0.1875 -1.4375q0.15625 0.015625 0.265625 0.015625q1.046875 0 1.875 -0.546875q0.84375 -0.546875 0.84375 -1.671875q0 -0.90625 -0.609375 -1.5q-0.609375 -0.59375 -1.578125 -0.59375q-0.953125 0 -1.59375 0.609375q-0.6406212 0.59375 -0.8124962 1.796875l-1.640625 -0.296875q0.296875 -1.640625 1.359375 -2.546875q1.0624962 -0.90625 2.6562462 -0.90625q1.09375 0 2.0 0.46875q0.921875 0.46875 1.40625 1.28125q0.5 0.8125 0.5 1.71875q0 0.859375 -0.46875 1.578125q-0.46875 0.703125 -1.375 1.125q1.1875 0.28125 1.84375 1.140625q0.65625 0.859375 0.65625 2.15625q0 1.734375 -1.28125 2.953125q-1.265625 1.21875 -3.21875 1.21875q-1.765625 0 -2.9218712 -1.046875q-1.15625 -1.046875 -1.328125 -2.71875z" fill-rule="nonzero"/><path fill="#ffffff" d="m80.603676 103.173225l28.69291 0l0 28.69291l-28.69291 0z" fill-rule="evenodd"/><path stroke="#000000" stroke-width="1.0" stroke-linejoin="round" stroke-linecap="butt" d="m80.603676 103.173225l28.69291 0l0 28.69291l-28.69291 0z" fill-rule="evenodd"/><path fill="#000000" d="m90.384926 120.90843l1.640625 -0.21875q0.28125 1.40625 0.953125 2.015625q0.6875 0.609375 1.65625 0.609375q1.15625 0 1.953125 -0.796875q0.796875 -0.796875 0.796875 -1.984375q0 -1.125 -0.734375 -1.859375q-0.734375 -0.734375 -1.875 -0.734375q-0.46875 0 -1.15625 0.171875l0.1875 -1.4375q0.15625 0.015625 0.265625 0.015625q1.046875 0 1.875 -0.546875q0.84375 -0.546875 0.84375 -1.671875q0 -0.90625 -0.609375 -1.5q-0.609375 -0.59375 -1.578125 -0.59375q-0.953125 0 -1.59375 0.609375q-0.640625 0.59375 -0.8125 1.796875l-1.640625 -0.296875q0.296875 -1.640625 1.359375 -2.546875q1.0625 -0.90625 2.65625 -0.90625q1.09375 0 2.0 0.46875q0.921875 0.46875 1.40625 1.28125q0.5 0.8125 0.5 1.71875q0 0.859375 -0.46875 1.578125q-0.46875 0.703125 -1.375 1.125q1.1875 0.28125 1.84375 1.140625q0.65625 0.859375 0.65625 2.15625q0 1.734375 -1.28125 2.953125q-1.265625 1.21875 -3.21875 1.21875q-1.765625 0 -2.921875 -1.046875q-1.15625 -1.046875 -1.328125 -2.71875z" fill-rule="nonzero"/><path fill="#ffffff" d="m109.296585 103.173225l28.692917 0l0 28.69291l-28.692917 0z" fill-rule="evenodd"/><path stroke="#000000" stroke-width="1.0" stroke-linejoin="round" stroke-linecap="butt" d="m109.296585 103.173225l28.692917 0l0 28.69291l-28.692917 0z" fill-rule="evenodd"/><path fill="#000000" d="m119.077835 120.90843l1.640625 -0.21875q0.28125 1.40625 0.953125 2.015625q0.6875 0.609375 1.65625 0.609375q1.15625 0 1.953125 -0.796875q0.796875 -0.796875 0.796875 -1.984375q0 -1.125 -0.734375 -1.859375q-0.734375 -0.734375 -1.875 -0.734375q-0.46875 0 -1.15625 0.171875l0.1875 -1.4375q0.15625 0.015625 0.265625 0.015625q1.046875 0 1.875 -0.546875q0.84375 -0.546875 0.84375 -1.671875q0 -0.90625 -0.609375 -1.5q-0.609375 -0.59375 -1.578125 -0.59375q-0.953125 0 -1.59375 0.609375q-0.640625 0.59375 -0.8125 1.796875l-1.640625 -0.296875q0.296875 -1.640625 1.359375 -2.546875q1.0625 -0.90625 2.65625 -0.90625q1.09375 0 2.0 0.46875q0.921875 0.46875 1.40625 1.28125q0.5 0.8125 0.5 1.71875q0 0.859375 -0.46875 1.578125q-0.46875 0.703125 -1.375 1.125q1.1875 0.28125 1.84375 1.140625q0.65625 0.859375 0.65625 2.15625q0 1.734375 -1.28125 2.953125q-1.265625 1.21875 -3.21875 1.21875q-1.765625 0 -2.921875 -1.046875q-1.15625 -1.046875 -1.328125 -2.71875z" fill-rule="nonzero"/><path fill="#ffffff" d="m137.9895 103.173225l28.692917 0l0 28.69291l-28.692917 0z" fill-rule="evenodd"/><path stroke="#000000" stroke-width="1.0" stroke-linejoin="round" stroke-linecap="butt" d="m137.9895 103.173225l28.692917 0l0 28.69291l-28.692917 0z" fill-rule="evenodd"/><path fill="#000000" d="m147.77075 120.90843l1.640625 -0.21875q0.28125 1.40625 0.953125 2.015625q0.6875 0.609375 1.65625 0.609375q1.15625 0 1.953125 -0.796875q0.796875 -0.796875 0.796875 -1.984375q0 -1.125 -0.734375 -1.859375q-0.734375 -0.734375 -1.875 -0.734375q-0.46875 0 -1.15625 0.171875l0.1875 -1.4375q0.15625 0.015625 0.265625 0.015625q1.046875 0 1.875 -0.546875q0.84375 -0.546875 0.84375 -1.671875q0 -0.90625 -0.609375 -1.5q-0.609375 -0.59375 -1.578125 -0.59375q-0.953125 0 -1.59375 0.609375q-0.640625 0.59375 -0.8125 1.796875l-1.640625 -0.296875q0.296875 -1.640625 1.359375 -2.546875q1.0625 -0.90625 2.65625 -0.90625q1.09375 0 2.0 0.46875q0.921875 0.46875 1.40625 1.28125q0.5 0.8125 0.5 1.71875q0 0.859375 -0.46875 1.578125q-0.46875 0.703125 -1.375 1.125q1.1875 0.28125 1.84375 1.140625q0.65625 0.859375 0.65625 2.15625q0 1.734375 -1.28125 2.953125q-1.265625 1.21875 -3.21875 1.21875q-1.765625 0 -2.921875 -1.046875q-1.15625 -1.046875 -1.328125 -2.71875z" fill-rule="nonzero"/><path fill="#ffffff" d="m166.68242 103.173225l28.692917 0l0 28.69291l-28.692917 0z" fill-rule="evenodd"/><path stroke="#000000" stroke-width="1.0" stroke-linejoin="round" stroke-linecap="butt" d="m166.68242 103.173225l28.692917 0l0 28.69291l-28.692917 0z" fill-rule="evenodd"/><path fill="#000000" d="m176.46367 120.90843l1.640625 -0.21875q0.28125 1.40625 0.953125 2.015625q0.6875 0.609375 1.65625 0.609375q1.15625 0 1.953125 -0.796875q0.796875 -0.796875 0.796875 -1.984375q0 -1.125 -0.734375 -1.859375q-0.734375 -0.734375 -1.875 -0.734375q-0.46875 0 -1.15625 0.171875l0.1875 -1.4375q0.15625 0.015625 0.265625 0.015625q1.046875 0 1.875 -0.546875q0.84375 -0.546875 0.84375 -1.671875q0 -0.90625 -0.609375 -1.5q-0.609375 -0.59375 -1.578125 -0.59375q-0.953125 0 -1.59375 0.609375q-0.640625 0.59375 -0.8125 1.796875l-1.640625 -0.296875q0.296875 -1.640625 1.359375 -2.546875q1.0625 -0.90625 2.65625 -0.90625q1.09375 0 2.0 0.46875q0.921875 0.46875 1.40625 1.28125q0.5 0.8125 0.5 1.71875q0 0.859375 -0.46875 1.578125q-0.46875 0.703125 -1.375 1.125q1.1875 0.28125 1.84375 1.140625q0.65625 0.859375 0.65625 2.15625q0 1.734375 -1.28125 2.953125q-1.265625 1.21875 -3.21875 1.21875q-1.765625 0 -2.921875 -1.046875q-1.15625 -1.046875 -1.328125 -2.71875z" fill-rule="nonzero"/><path fill="#ffffff" d="m195.37534 103.173225l28.692902 0l0 28.69291l-28.692902 0z" fill-rule="evenodd"/><path stroke="#000000" stroke-width="1.0" stroke-linejoin="round" stroke-linecap="butt" d="m195.37534 103.173225l28.692902 0l0 28.69291l-28.692902 0z" fill-rule="evenodd"/><path fill="#000000" d="m205.15659 120.90843l1.640625 -0.21875q0.28125 1.40625 0.953125 2.015625q0.6875 0.609375 1.65625 0.609375q1.15625 0 1.953125 -0.796875q0.796875 -0.796875 0.796875 -1.984375q0 -1.125 -0.734375 -1.859375q-0.734375 -0.734375 -1.875 -0.734375q-0.46875 0 -1.15625 0.171875l0.1875 -1.4375q0.15625 0.015625 0.265625 0.015625q1.046875 0 1.875 -0.546875q0.84375 -0.546875 0.84375 -1.671875q0 -0.90625 -0.609375 -1.5q-0.609375 -0.59375 -1.578125 -0.59375q-0.953125 0 -1.59375 0.609375q-0.640625 0.59375 -0.8125 1.796875l-1.640625 -0.296875q0.296875 -1.640625 1.359375 -2.546875q1.0625 -0.90625 2.65625 -0.90625q1.09375 0 2.0 0.46875q0.921875 0.46875 1.40625 1.28125q0.5 0.8125 0.5 1.71875q0 0.859375 -0.46875 1.578125q-0.46875 0.703125 -1.375 1.125q1.1875 0.28125 1.84375 1.140625q0.65625 0.859375 0.65625 2.15625q0 1.734375 -1.28125 2.953125q-1.265625 1.21875 -3.21875 1.21875q-1.765625 0 -2.921875 -1.046875q-1.15625 -1.046875 -1.328125 -2.71875z" fill-rule="nonzero"/><path fill="#ffffff" d="m224.06824 103.173225l28.692917 0l0 28.69291l-28.692917 0z" fill-rule="evenodd"/><path stroke="#000000" stroke-width="1.0" stroke-linejoin="round" stroke-linecap="butt" d="m224.06824 103.173225l28.692917 0l0 28.69291l-28.692917 0z" fill-rule="evenodd"/><path fill="#000000" d="m233.84949 120.90843l1.640625 -0.21875q0.28125 1.40625 0.953125 2.015625q0.6875 0.609375 1.65625 0.609375q1.15625 0 1.953125 -0.796875q0.796875 -0.796875 0.796875 -1.984375q0 -1.125 -0.734375 -1.859375q-0.734375 -0.734375 -1.875 -0.734375q-0.46875 0 -1.15625 0.171875l0.1875 -1.4375q0.15625 0.015625 0.265625 0.015625q1.046875 0 1.875 -0.546875q0.84375 -0.546875 0.84375 -1.671875q0 -0.90625 -0.609375 -1.5q-0.609375 -0.59375 -1.578125 -0.59375q-0.953125 0 -1.59375 0.609375q-0.640625 0.59375 -0.8125 1.796875l-1.640625 -0.296875q0.296875 -1.640625 1.359375 -2.546875q1.0625 -0.90625 2.65625 -0.90625q1.09375 0 2.0 0.46875q0.921875 0.46875 1.40625 1.28125q0.5 0.8125 0.5 1.71875q0 0.859375 -0.46875 1.578125q-0.46875 0.703125 -1.375 1.125q1.1875 0.28125 1.84375 1.140625q0.65625 0.859375 0.65625 2.15625q0 1.734375 -1.28125 2.953125q-1.265625 1.21875 -3.21875 1.21875q-1.765625 0 -2.921875 -1.046875q-1.15625 -1.046875 -1.328125 -2.71875z" fill-rule="nonzero"/><path fill="#ffffff" d="m252.76115 103.173225l28.692917 0l0 28.69291l-28.692917 0z" fill-rule="evenodd"/><path stroke="#000000" stroke-width="1.0" stroke-linejoin="round" stroke-linecap="butt" d="m252.76115 103.173225l28.692917 0l0 28.69291l-28.692917 0z" fill-rule="evenodd"/><path fill="#000000" d="m262.54242 120.90843l1.640625 -0.21875q0.28125 1.40625 0.953125 2.015625q0.6875 0.609375 1.65625 0.609375q1.15625 0 1.953125 -0.796875q0.796875 -0.796875 0.796875 -1.984375q0 -1.125 -0.734375 -1.859375q-0.734375 -0.734375 -1.875 -0.734375q-0.46875 0 -1.15625 0.171875l0.1875 -1.4375q0.15625 0.015625 0.265625 0.015625q1.046875 0 1.875 -0.546875q0.84375 -0.546875 0.84375 -1.671875q0 -0.90625 -0.609375 -1.5q-0.609375 -0.59375 -1.578125 -0.59375q-0.953125 0 -1.59375 0.609375q-0.640625 0.59375 -0.8125 1.796875l-1.640625 -0.296875q0.296875 -1.640625 1.359375 -2.546875q1.0625 -0.90625 2.65625 -0.90625q1.09375 0 2.0 0.46875q0.921875 0.46875 1.40625 1.28125q0.5 0.8125 0.5 1.71875q0 0.859375 -0.46875 1.578125q-0.46875 0.703125 -1.375 1.125q1.1875 0.28125 1.84375 1.140625q0.65625 0.859375 0.65625 2.15625q0 1.734375 -1.28125 2.953125q-1.265625 1.21875 -3.21875 1.21875q-1.765625 0 -2.921875 -1.046875q-1.15625 -1.046875 -1.328125 -2.71875z" fill-rule="nonzero"/><path fill="#ffffff" d="m281.45407 103.173225l28.692902 0l0 28.69291l-28.692902 0z" fill-rule="evenodd"/><path stroke="#000000" stroke-width="1.0" stroke-linejoin="round" stroke-linecap="butt" d="m281.45407 103.173225l28.692902 0l0 28.69291l-28.692902 0z" fill-rule="evenodd"/><path fill="#000000" d="m291.23532 120.90843l1.640625 -0.21875q0.28125 1.40625 0.953125 2.015625q0.6875 0.609375 1.65625 0.609375q1.15625 0 1.953125 -0.796875q0.796875 -0.796875 0.796875 -1.984375q0 -1.125 -0.734375 -1.859375q-0.734375 -0.734375 -1.875 -0.734375q-0.46875 0 -1.15625 0.171875l0.1875 -1.4375q0.15625 0.015625 0.265625 0.015625q1.046875 0 1.875 -0.546875q0.84375 -0.546875 0.84375 -1.671875q0 -0.90625 -0.609375 -1.5q-0.609375 -0.59375 -1.578125 -0.59375q-0.953125 0 -1.59375 0.609375q-0.640625 0.59375 -0.8125 1.796875l-1.640625 -0.296875q0.296875 -1.640625 1.359375 -2.546875q1.0625 -0.90625 2.65625 -0.90625q1.09375 0 2.0 0.46875q0.921875 0.46875 1.40625 1.28125q0.5 0.8125 0.5 1.71875q0 0.859375 -0.46875 1.578125q-0.46875 0.703125 -1.375 1.125q1.1875 0.28125 1.84375 1.140625q0.65625 0.859375 0.65625 2.15625q0 1.734375 -1.28125 2.953125q-1.265625 1.21875 -3.21875 1.21875q-1.765625 0 -2.921875 -1.046875q-1.15625 -1.046875 -1.328125 -2.71875z" fill-rule="nonzero"/><path fill="#ffffff" d="m310.14697 103.173225l28.692932 0l0 28.69291l-28.692932 0z" fill-rule="evenodd"/><path stroke="#000000" stroke-width="1.0" stroke-linejoin="round" stroke-linecap="butt" d="m310.14697 103.173225l28.692932 0l0 28.69291l-28.692932 0z" fill-rule="evenodd"/><path fill="#000000" d="m319.92822 120.90843l1.640625 -0.21875q0.28125 1.40625 0.953125 2.015625q0.6875 0.609375 1.65625 0.609375q1.15625 0 1.953125 -0.796875q0.796875 -0.796875 0.796875 -1.984375q0 -1.125 -0.734375 -1.859375q-0.734375 -0.734375 -1.875 -0.734375q-0.46875 0 -1.15625 0.171875l0.1875 -1.4375q0.15625 0.015625 0.265625 0.015625q1.046875 0 1.875 -0.546875q0.84375 -0.546875 0.84375 -1.671875q0 -0.90625 -0.609375 -1.5q-0.609375 -0.59375 -1.578125 -0.59375q-0.953125 0 -1.59375 0.609375q-0.640625 0.59375 -0.8125 1.796875l-1.640625 -0.296875q0.296875 -1.640625 1.359375 -2.546875q1.0625 -0.90625 2.65625 -0.90625q1.09375 0 2.0 0.46875q0.921875 0.46875 1.40625 1.28125q0.5 0.8125 0.5 1.71875q0 0.859375 -0.46875 1.578125q-0.46875 0.703125 -1.375 1.125q1.1875 0.28125 1.84375 1.140625q0.65625 0.859375 0.65625 2.15625q0 1.734375 -1.28125 2.953125q-1.265625 1.21875 -3.21875 1.21875q-1.765625 0 -2.921875 -1.046875q-1.15625 -1.046875 -1.328125 -2.71875z" fill-rule="nonzero"/><path fill="#ffffff" d="m338.8399 103.173225l28.692902 0l0 28.69291l-28.692902 0z" fill-rule="evenodd"/><path stroke="#000000" stroke-width="1.0" stroke-linejoin="round" stroke-linecap="butt" d="m338.8399 103.173225l28.692902 0l0 28.69291l-28.692902 0z" fill-rule="evenodd"/><path fill="#000000" d="m348.62115 120.90843l1.640625 -0.21875q0.28125 1.40625 0.953125 2.015625q0.6875 0.609375 1.65625 0.609375q1.15625 0 1.953125 -0.796875q0.796875 -0.796875 0.796875 -1.984375q0 -1.125 -0.734375 -1.859375q-0.734375 -0.734375 -1.875 -0.734375q-0.46875 0 -1.15625 0.171875l0.1875 -1.4375q0.15625 0.015625 0.265625 0.015625q1.046875 0 1.875 -0.546875q0.84375 -0.546875 0.84375 -1.671875q0 -0.90625 -0.609375 -1.5q-0.609375 -0.59375 -1.578125 -0.59375q-0.953125 0 -1.59375 0.609375q-0.640625 0.59375 -0.8125 1.796875l-1.640625 -0.296875q0.296875 -1.640625 1.359375 -2.546875q1.0625 -0.90625 2.65625 -0.90625q1.09375 0 2.0 0.46875q0.921875 0.46875 1.40625 1.28125q0.5 0.8125 0.5 1.71875q0 0.859375 -0.46875 1.578125q-0.46875 0.703125 -1.375 1.125q1.1875 0.28125 1.84375 1.140625q0.65625 0.859375 0.65625 2.15625q0 1.734375 -1.28125 2.953125q-1.265625 1.21875 -3.21875 1.21875q-1.765625 0 -2.921875 -1.046875q-1.15625 -1.046875 -1.328125 -2.71875z" fill-rule="nonzero"/><path fill="#ffffff" d="m367.5328 103.173225l28.692902 0l0 28.69291l-28.692902 0z" fill-rule="evenodd"/><path stroke="#000000" stroke-width="1.0" stroke-linejoin="round" stroke-linecap="butt" d="m367.5328 103.173225l28.692902 0l0 28.69291l-28.692902 0z" fill-rule="evenodd"/><path fill="#000000" d="m377.31406 120.90843l1.640625 -0.21875q0.28125 1.40625 0.953125 2.015625q0.6875 0.609375 1.65625 0.609375q1.15625 0 1.953125 -0.796875q0.796875 -0.796875 0.796875 -1.984375q0 -1.125 -0.734375 -1.859375q-0.734375 -0.734375 -1.875 -0.734375q-0.46875 0 -1.15625 0.171875l0.1875 -1.4375q0.15625 0.015625 0.265625 0.015625q1.046875 0 1.875 -0.546875q0.84375 -0.546875 0.84375 -1.671875q0 -0.90625 -0.609375 -1.5q-0.609375 -0.59375 -1.578125 -0.59375q-0.953125 0 -1.59375 0.609375q-0.640625 0.59375 -0.8125 1.796875l-1.640625 -0.296875q0.296875 -1.640625 1.359375 -2.546875q1.0625 -0.90625 2.65625 -0.90625q1.09375 0 2.0 0.46875q0.921875 0.46875 1.40625 1.28125q0.5 0.8125 0.5 1.71875q0 0.859375 -0.46875 1.578125q-0.46875 0.703125 -1.375 1.125q1.1875 0.28125 1.84375 1.140625q0.65625 0.859375 0.65625 2.15625q0 1.734375 -1.28125 2.953125q-1.265625 1.21875 -3.21875 1.21875q-1.765625 0 -2.921875 -1.046875q-1.15625 -1.046875 -1.328125 -2.71875z" fill-rule="nonzero"/><path fill="#ffffff" d="m396.2257 103.173225l28.692932 0l0 28.69291l-28.692932 0z" fill-rule="evenodd"/><path stroke="#000000" stroke-width="1.0" stroke-linejoin="round" stroke-linecap="butt" d="m396.2257 103.173225l28.692932 0l0 28.69291l-28.692932 0z" fill-rule="evenodd"/><path fill="#000000" d="m406.00696 120.90843l1.640625 -0.21875q0.28125 1.40625 0.953125 2.015625q0.6875 0.609375 1.65625 0.609375q1.15625 0 1.953125 -0.796875q0.796875 -0.796875 0.796875 -1.984375q0 -1.125 -0.734375 -1.859375q-0.734375 -0.734375 -1.875 -0.734375q-0.46875 0 -1.15625 0.171875l0.1875 -1.4375q0.15625 0.015625 0.265625 0.015625q1.046875 0 1.875 -0.546875q0.84375 -0.546875 0.84375 -1.671875q0 -0.90625 -0.609375 -1.5q-0.609375 -0.59375 -1.578125 -0.59375q-0.953125 0 -1.59375 0.609375q-0.640625 0.59375 -0.8125 1.796875l-1.640625 -0.296875q0.296875 -1.640625 1.359375 -2.546875q1.0625 -0.90625 2.65625 -0.90625q1.09375 0 2.0 0.46875q0.921875 0.46875 1.40625 1.28125q0.5 0.8125 0.5 1.71875q0 0.859375 -0.46875 1.578125q-0.46875 0.703125 -1.375 1.125q1.1875 0.28125 1.84375 1.140625q0.65625 0.859375 0.65625 2.15625q0 1.734375 -1.28125 2.953125q-1.265625 1.21875 -3.21875 1.21875q-1.765625 0 -2.921875 -1.046875q-1.15625 -1.046875 -1.328125 -2.71875z" fill-rule="nonzero"/><path fill="#ffffff" d="m424.91864 103.173225l28.692902 0l0 28.69291l-28.692902 0z" fill-rule="evenodd"/><path stroke="#000000" stroke-width="1.0" stroke-linejoin="round" stroke-linecap="butt" d="m424.91864 103.173225l28.692902 0l0 28.69291l-28.692902 0z" fill-rule="evenodd"/><path fill="#000000" d="m434.6999 120.90843l1.640625 -0.21875q0.28125 1.40625 0.953125 2.015625q0.6875 0.609375 1.65625 0.609375q1.15625 0 1.953125 -0.796875q0.796875 -0.796875 0.796875 -1.984375q0 -1.125 -0.734375 -1.859375q-0.734375 -0.734375 -1.875 -0.734375q-0.46875 0 -1.15625 0.171875l0.1875 -1.4375q0.15625 0.015625 0.265625 0.015625q1.046875 0 1.875 -0.546875q0.84375 -0.546875 0.84375 -1.671875q0 -0.90625 -0.609375 -1.5q-0.609375 -0.59375 -1.578125 -0.59375q-0.953125 0 -1.59375 0.609375q-0.640625 0.59375 -0.8125 1.796875l-1.640625 -0.296875q0.296875 -1.640625 1.359375 -2.546875q1.0625 -0.90625 2.65625 -0.90625q1.09375 0 2.0 0.46875q0.921875 0.46875 1.40625 1.28125q0.5 0.8125 0.5 1.71875q0 0.859375 -0.46875 1.578125q-0.46875 0.703125 -1.375 1.125q1.1875 0.28125 1.84375 1.140625q0.65625 0.859375 0.65625 2.15625q0 1.734375 -1.28125 2.953125q-1.265625 1.21875 -3.21875 1.21875q-1.765625 0 -2.921875 -1.046875q-1.15625 -1.046875 -1.328125 -2.71875z" fill-rule="nonzero"/><path fill="#ffffff" d="m453.61154 103.173225l28.692932 0l0 28.69291l-28.692932 0z" fill-rule="evenodd"/><path stroke="#000000" stroke-width="1.0" stroke-linejoin="round" stroke-linecap="butt" d="m453.61154 103.173225l28.692932 0l0 28.69291l-28.692932 0z" fill-rule="evenodd"/><path fill="#000000" d="m463.3928 120.90843l1.640625 -0.21875q0.28125 1.40625 0.953125 2.015625q0.6875 0.609375 1.65625 0.609375q1.15625 0 1.953125 -0.796875q0.796875 -0.796875 0.796875 -1.984375q0 -1.125 -0.734375 -1.859375q-0.734375 -0.734375 -1.875 -0.734375q-0.46875 0 -1.15625 0.171875l0.1875 -1.4375q0.15625 0.015625 0.265625 0.015625q1.046875 0 1.875 -0.546875q0.84375 -0.546875 0.84375 -1.671875q0 -0.90625 -0.609375 -1.5q-0.609375 -0.59375 -1.578125 -0.59375q-0.953125 0 -1.59375 0.609375q-0.640625 0.59375 -0.8125 1.796875l-1.640625 -0.296875q0.296875 -1.640625 1.359375 -2.546875q1.0625 -0.90625 2.65625 -0.90625q1.09375 0 2.0 0.46875q0.921875 0.46875 1.40625 1.28125q0.5 0.8125 0.5 1.71875q0 0.859375 -0.46875 1.578125q-0.46875 0.703125 -1.375 1.125q1.1875 0.28125 1.84375 1.140625q0.65625 0.859375 0.65625 2.15625q0 1.734375 -1.28125 2.953125q-1.265625 1.21875 -3.21875 1.21875q-1.765625 0 -2.921875 -1.046875q-1.15625 -1.046875 -1.328125 -2.71875z" fill-rule="nonzero"/><path fill="#000000" fill-opacity="0.0" d="m22.61155 17.094488l31.11811 0l0 28.692915l-31.11811 0z" fill-rule="evenodd"/><path fill="#000000" d="m32.3928 36.334488l0 -7.625l2.46875 0q1.40625 0 1.828125 0.109375q0.65625 0.171875 1.09375 0.75q0.453125 0.578125 0.453125 1.484375q0 0.703125 -0.265625 1.1875q-0.25 0.46875 -0.640625 0.75q-0.390625 0.265625 -0.796875 0.359375q-0.5625 0.109375 -1.609375 0.109375l-1.0 0l0 2.875l-1.53125 0zm1.53125 -6.34375l0 2.171875l0.84375 0q0.90625 0 1.21875 -0.109375q0.3125 -0.125 0.484375 -0.375q0.171875 -0.265625 0.171875 -0.609375q0 -0.40625 -0.25 -0.671875q-0.234375 -0.28125 -0.609375 -0.34375q-0.28125 -0.0625 -1.109375 -0.0625l-0.75 0z" fill-rule="nonzero"/><path fill="#000000" d="m41.51606 40.334488l-0.96875 0l0 -3.671875q-0.546875 0.5 -1.265625 0.734375l0 -0.890625q0.375 -0.125 0.828125 -0.46875q0.453125 -0.34375 0.609375 -0.8125l0.796875 0l0 5.109375z" fill-rule="nonzero"/><path fill="#000000" fill-opacity="0.0" d="m107.47769 17.094488l31.118103 0l0 28.692915l-31.118103 0z" fill-rule="evenodd"/><path fill="#000000" d="m117.25894 36.334488l0 -7.625l2.46875 0q1.40625 0 1.828125 0.109375q0.65625 0.171875 1.09375 0.75q0.453125 0.578125 0.453125 1.484375q0 0.703125 -0.265625 1.1875q-0.25 0.46875 -0.640625 0.75q-0.390625 0.265625 -0.796875 0.359375q-0.5625 0.109375 -1.609375 0.109375l-1.0 0l0 2.875l-1.53125 0zm1.53125 -6.34375l0 2.171875l0.84375 0q0.90625 0 1.21875 -0.109375q0.3125 -0.125 0.484375 -0.375q0.171875 -0.265625 0.171875 -0.609375q0 -0.40625 -0.25 -0.671875q-0.234375 -0.28125 -0.609375 -0.34375q-0.28125 -0.0625 -1.109375 -0.0625l-0.75 0z" fill-rule="nonzero"/><path fill="#000000" d="m125.80408 40.334488l0 -1.03125l-2.09375 0l0 -0.84375l2.21875 -3.234375l0.8125 0l0 3.234375l0.640625 0l0 0.84375l-0.640625 0l0 1.03125l-0.9375 0zm0 -1.875l0 -1.75l-1.171875 1.75l1.171875 0z" fill-rule="nonzero"/><path fill="#000000" fill-opacity="0.0" d="m79.997375 17.094488l31.11811 0l0 28.692915l-31.11811 0z" fill-rule="evenodd"/><path fill="#000000" d="m89.778625 36.334488l0 -7.625l2.46875 0q1.40625 0 1.828125 0.109375q0.65625 0.171875 1.09375 0.75q0.453125 0.578125 0.453125 1.484375q0 0.703125 -0.265625 1.1875q-0.25 0.46875 -0.640625 0.75q-0.390625 0.265625 -0.796875 0.359375q-0.5625 0.109375 -1.609375 0.109375l-1.0 0l0 2.875l-1.53125 0zm1.53125 -6.34375l0 2.171875l0.84375 0q0.90625 0 1.21875 -0.109375q0.3125 -0.125 0.484375 -0.375q0.171875 -0.265625 0.171875 -0.609375q0 -0.40625 -0.25 -0.671875q-0.234375 -0.28125 -0.609375 -0.34375q-0.28125 -0.0625 -1.109375 -0.0625l-0.75 0z" fill-rule="nonzero"/><path fill="#000000" d="m96.370636 38.990738l0.953125 -0.125q0.03125 0.359375 0.234375 0.5625q0.203125 0.1875 0.484375 0.1875q0.296875 0 0.5 -0.234375q0.21875 -0.234375 0.21875 -0.609375q0 -0.375 -0.203125 -0.59375q-0.203125 -0.21875 -0.484375 -0.21875q-0.1875 0 -0.453125 0.078125l0.109375 -0.796875q0.40625 0.015625 0.609375 -0.15625q0.203125 -0.1875 0.203125 -0.5q0 -0.25 -0.15625 -0.40625q-0.140625 -0.15625 -0.40625 -0.15625q-0.25 0 -0.421875 0.1875q-0.171875 0.171875 -0.21875 0.5l-0.890625 -0.15625q0.09375 -0.453125 0.28125 -0.734375q0.1875 -0.28125 0.515625 -0.4375q0.34375 -0.15625 0.765625 -0.15625q0.71875 0 1.15625 0.453125q0.359375 0.375 0.359375 0.859375q0 0.65625 -0.734375 1.0625q0.4375 0.09375 0.6875 0.421875q0.265625 0.328125 0.265625 0.78125q0 0.671875 -0.484375 1.15625q-0.484375 0.46875 -1.21875 0.46875q-0.6875 0 -1.140625 -0.390625q-0.453125 -0.40625 -0.53125 -1.046875z" fill-rule="nonzero"/><path fill="#000000" fill-opacity="0.0" d="m164.86351 17.094488l31.118118 0l0 28.692915l-31.118118 0z" fill-rule="evenodd"/><path fill="#000000" d="m174.64476 36.334488l0 -7.625l2.46875 0q1.40625 0 1.828125 0.109375q0.65625 0.171875 1.09375 0.75q0.453125 0.578125 0.453125 1.484375q0 0.703125 -0.265625 1.1875q-0.25 0.46875 -0.640625 0.75q-0.390625 0.265625 -0.796875 0.359375q-0.5625 0.109375 -1.609375 0.109375l-1.0 0l0 2.875l-1.53125 0zm1.53125 -6.34375l0 2.171875l0.84375 0q0.90625 0 1.21875 -0.109375q0.3125 -0.125 0.484375 -0.375q0.171875 -0.265625 0.171875 -0.609375q0 -0.40625 -0.25 -0.671875q-0.234375 -0.28125 -0.609375 -0.34375q-0.28125 -0.0625 -1.109375 -0.0625l-0.75 0z" fill-rule="nonzero"/><path fill="#000000" d="m184.58052 36.490738l-0.953125 0.109375q-0.03125 -0.296875 -0.171875 -0.4375q-0.140625 -0.140625 -0.375 -0.140625q-0.3125 0 -0.53125 0.28125q-0.203125 0.28125 -0.265625 1.15625q0.359375 -0.4375 0.90625 -0.4375q0.609375 0 1.046875 0.46875q0.4375 0.46875 0.4375 1.203125q0 0.78125 -0.46875 1.265625q-0.453125 0.46875 -1.171875 0.46875q-0.765625 0 -1.265625 -0.59375q-0.5 -0.609375 -0.5 -1.96875q0 -1.40625 0.515625 -2.015625q0.53125 -0.625 1.34375 -0.625q0.59375 0 0.96875 0.328125q0.375 0.328125 0.484375 0.9375zm-2.21875 2.125q0 0.484375 0.21875 0.75q0.21875 0.25 0.5 0.25q0.28125 0 0.453125 -0.203125q0.1875 -0.21875 0.1875 -0.703125q0 -0.5 -0.203125 -0.734375q-0.1875 -0.234375 -0.484375 -0.234375q-0.28125 0 -0.484375 0.234375q-0.1875 0.21875 -0.1875 0.640625z" fill-rule="nonzero"/><path fill="#000000" fill-opacity="0.0" d="m137.38321 17.094488l31.118103 0l0 28.692915l-31.118103 0z" fill-rule="evenodd"/><path fill="#000000" d="m147.16446 36.334488l0 -7.625l2.46875 0q1.40625 0 1.828125 0.109375q0.65625 0.171875 1.09375 0.75q0.453125 0.578125 0.453125 1.484375q0 0.703125 -0.265625 1.1875q-0.25 0.46875 -0.640625 0.75q-0.390625 0.265625 -0.796875 0.359375q-0.5625 0.109375 -1.609375 0.109375l-1.0 0l0 2.875l-1.53125 0zm1.53125 -6.34375l0 2.171875l0.84375 0q0.90625 0 1.21875 -0.109375q0.3125 -0.125 0.484375 -0.375q0.171875 -0.265625 0.171875 -0.609375q0 -0.40625 -0.25 -0.671875q-0.234375 -0.28125 -0.609375 -0.34375q-0.28125 -0.0625 -1.109375 -0.0625l-0.75 0z" fill-rule="nonzero"/><path fill="#000000" d="m153.80334 39.021988l0.96875 -0.09375q0.046875 0.328125 0.25 0.53125q0.203125 0.1875 0.46875 0.1875q0.3125 0 0.515625 -0.25q0.21875 -0.25 0.21875 -0.75q0 -0.46875 -0.21875 -0.703125q-0.203125 -0.234375 -0.53125 -0.234375q-0.421875 0 -0.765625 0.375l-0.78125 -0.125l0.5 -2.640625l2.578125 0l0 0.90625l-1.84375 0l-0.15625 0.859375q0.328125 -0.15625 0.671875 -0.15625q0.65625 0 1.09375 0.46875q0.453125 0.46875 0.453125 1.234375q0 0.625 -0.359375 1.109375q-0.5 0.6875 -1.375 0.6875q-0.703125 0 -1.15625 -0.375q-0.4375 -0.390625 -0.53125 -1.03125z" fill-rule="nonzero"/><path fill="#000000" fill-opacity="0.0" d="m222.24934 17.094488l31.118103 0l0 28.692915l-31.118103 0z" fill-rule="evenodd"/><path fill="#000000" d="m232.0306 36.334488l0 -7.625l2.46875 0q1.40625 0 1.828125 0.109375q0.65625 0.171875 1.09375 0.75q0.453125 0.578125 0.453125 1.484375q0 0.703125 -0.265625 1.1875q-0.25 0.46875 -0.640625 0.75q-0.390625 0.265625 -0.796875 0.359375q-0.5625 0.109375 -1.609375 0.109375l-1.0 0l0 2.875l-1.53125 0zm1.53125 -6.34375l0 2.171875l0.84375 0q0.90625 0 1.21875 -0.109375q0.3125 -0.125 0.484375 -0.375q0.171875 -0.265625 0.171875 -0.609375q0 -0.40625 -0.25 -0.671875q-0.234375 -0.28125 -0.609375 -0.34375q-0.28125 -0.0625 -1.109375 -0.0625l-0.75 0z" fill-rule="nonzero"/><path fill="#000000" d="m239.4976 37.584488q-0.375 -0.15625 -0.546875 -0.4375q-0.171875 -0.28125 -0.171875 -0.609375q0 -0.5625 0.390625 -0.9375q0.40625 -0.375 1.125 -0.375q0.734375 0 1.125 0.375q0.40625 0.375 0.40625 0.9375q0 0.359375 -0.1875 0.640625q-0.171875 0.265625 -0.515625 0.40625q0.421875 0.171875 0.640625 0.5q0.234375 0.328125 0.234375 0.75q0 0.703125 -0.453125 1.15625q-0.453125 0.4375 -1.203125 0.4375q-0.6875 0 -1.15625 -0.375q-0.546875 -0.421875 -0.546875 -1.171875q0 -0.421875 0.203125 -0.765625q0.21875 -0.34375 0.65625 -0.53125zm0.203125 -0.984375q0 0.296875 0.15625 0.46875q0.171875 0.15625 0.4375 0.15625q0.28125 0 0.453125 -0.15625q0.171875 -0.171875 0.171875 -0.46875q0 -0.265625 -0.171875 -0.421875q-0.171875 -0.171875 -0.4375 -0.171875q-0.28125 0 -0.453125 0.171875q-0.15625 0.15625 -0.15625 0.421875zm-0.09375 2.1875q0 0.40625 0.203125 0.640625q0.203125 0.21875 0.515625 0.21875q0.3125 0 0.5 -0.21875q0.203125 -0.21875 0.203125 -0.625q0 -0.359375 -0.203125 -0.578125q-0.203125 -0.21875 -0.515625 -0.21875q-0.359375 0 -0.53125 0.25q-0.171875 0.234375 -0.171875 0.53125z" fill-rule="nonzero"/><path fill="#000000" fill-opacity="0.0" d="m194.76903 17.094488l31.118118 0l0 28.692915l-31.118118 0z" fill-rule="evenodd"/><path fill="#000000" d="m204.55028 36.334488l0 -7.625l2.46875 0q1.40625 0 1.828125 0.109375q0.65625 0.171875 1.09375 0.75q0.453125 0.578125 0.453125 1.484375q0 0.703125 -0.265625 1.1875q-0.25 0.46875 -0.640625 0.75q-0.390625 0.265625 -0.796875 0.359375q-0.5625 0.109375 -1.609375 0.109375l-1.0 0l0 2.875l-1.53125 0zm1.53125 -6.34375l0 2.171875l0.84375 0q0.90625 0 1.21875 -0.109375q0.3125 -0.125 0.484375 -0.375q0.171875 -0.265625 0.171875 -0.609375q0 -0.40625 -0.25 -0.671875q-0.234375 -0.28125 -0.609375 -0.34375q-0.28125 -0.0625 -1.109375 -0.0625l-0.75 0z" fill-rule="nonzero"/><path fill="#000000" d="m211.17354 36.225113l0 -0.90625l3.34375 0l0 0.703125q-0.421875 0.40625 -0.84375 1.171875q-0.421875 0.75 -0.65625 1.609375q-0.21875 0.859375 -0.21875 1.53125l-0.9375 0q0.03125 -1.0625 0.4375 -2.15625q0.40625 -1.09375 1.09375 -1.953125l-2.21875 0z" fill-rule="nonzero"/><path fill="#000000" fill-opacity="0.0" d="m281.45407 17.0958l33.606293 0l0 28.692915l-33.606293 0z" fill-rule="evenodd"/><path fill="#000000" d="m291.23532 36.3358l0 -7.625l2.46875 0q1.40625 0 1.828125 0.109375q0.65625 0.171875 1.09375 0.75q0.453125 0.578125 0.453125 1.484375q0 0.703125 -0.265625 1.1875q-0.25 0.46875 -0.640625 0.75q-0.390625 0.265625 -0.796875 0.359375q-0.5625 0.109375 -1.609375 0.109375l-1.0 0l0 2.875l-1.53125 0zm1.53125 -6.34375l0 2.171875l0.84375 0q0.90625 0 1.21875 -0.109375q0.3125 -0.125 0.484375 -0.375q0.171875 -0.265625 0.171875 -0.609375q0 -0.40625 -0.25 -0.671875q-0.234375 -0.28125 -0.609375 -0.34375q-0.28125 -0.0625 -1.109375 -0.0625l-0.75 0z" fill-rule="nonzero"/><path fill="#000000" d="m300.35858 40.3358l-0.96875 0l0 -3.671875q-0.546875 0.5 -1.265625 0.734375l0 -0.890625q0.375 -0.125 0.828125 -0.46875q0.453125 -0.34375 0.609375 -0.8125l0.796875 0l0 5.109375zm3.110077 -5.109375q0.734375 0 1.15625 0.53125q0.5 0.625 0.5 2.0625q0 1.453125 -0.5 2.078125q-0.421875 0.53125 -1.15625 0.53125q-0.75 0 -1.203125 -0.578125q-0.453125 -0.578125 -0.453125 -2.03125q0 -1.4375 0.5 -2.078125q0.421875 -0.515625 1.15625 -0.515625zm0 0.8125q-0.171875 0 -0.3125 0.109375q-0.140625 0.109375 -0.21875 0.40625q-0.109375 0.375 -0.109375 1.265625q0 0.90625 0.09375 1.25q0.09375 0.328125 0.234375 0.4375q0.140625 0.109375 0.3125 0.109375q0.171875 0 0.3125 -0.109375q0.140625 -0.125 0.21875 -0.40625q0.09375 -0.375 0.09375 -1.28125q0 -0.890625 -0.09375 -1.21875q-0.078125 -0.34375 -0.21875 -0.453125q-0.140625 -0.109375 -0.3125 -0.109375z" fill-rule="nonzero"/><path fill="#000000" fill-opacity="0.0" d="m252.15486 17.094488l31.118118 0l0 28.692915l-31.118118 0z" fill-rule="evenodd"/><path fill="#000000" d="m261.9361 36.334488l0 -7.625l2.46875 0q1.40625 0 1.828125 0.109375q0.65625 0.171875 1.09375 0.75q0.453125 0.578125 0.453125 1.484375q0 0.703125 -0.265625 1.1875q-0.25 0.46875 -0.640625 0.75q-0.390625 0.265625 -0.796875 0.359375q-0.5625 0.109375 -1.609375 0.109375l-1.0 0l0 2.875l-1.53125 0zm1.53125 -6.34375l0 2.171875l0.84375 0q0.90625 0 1.21875 -0.109375q0.3125 -0.125 0.484375 -0.375q0.171875 -0.265625 0.171875 -0.609375q0 -0.40625 -0.25 -0.671875q-0.234375 -0.28125 -0.609375 -0.34375q-0.28125 -0.0625 -1.109375 -0.0625l-0.75 0z" fill-rule="nonzero"/><path fill="#000000" d="m268.5906 39.162613l0.9375 -0.109375q0.03125 0.28125 0.171875 0.421875q0.15625 0.140625 0.390625 0.140625q0.3125 0 0.515625 -0.265625q0.21875 -0.28125 0.28125 -1.15625q-0.375 0.421875 -0.921875 0.421875q-0.609375 0 -1.046875 -0.453125q-0.4375 -0.46875 -0.4375 -1.21875q0 -0.765625 0.453125 -1.234375q0.46875 -0.484375 1.1875 -0.484375q0.765625 0 1.265625 0.609375q0.5 0.59375 0.5 1.953125q0 1.40625 -0.515625 2.03125q-0.515625 0.609375 -1.34375 0.609375q-0.609375 0 -0.984375 -0.3125q-0.359375 -0.328125 -0.453125 -0.953125zm2.203125 -2.140625q0 -0.46875 -0.21875 -0.71875q-0.21875 -0.265625 -0.5 -0.265625q-0.265625 0 -0.453125 0.21875q-0.171875 0.203125 -0.171875 0.6875q0 0.5 0.1875 0.734375q0.203125 0.21875 0.484375 0.21875q0.28125 0 0.46875 -0.21875q0.203125 -0.21875 0.203125 -0.65625z" fill-rule="nonzero"/><path fill="#000000" fill-opacity="0.0" d="m307.69028 17.0958l33.606323 0l0 28.692915l-33.606323 0z" fill-rule="evenodd"/><path fill="#000000" d="m317.47153 36.3358l0 -7.625l2.46875 0q1.40625 0 1.828125 0.109375q0.65625 0.171875 1.09375 0.75q0.453125 0.578125 0.453125 1.484375q0 0.703125 -0.265625 1.1875q-0.25 0.46875 -0.640625 0.75q-0.390625 0.265625 -0.796875 0.359375q-0.5625 0.109375 -1.609375 0.109375l-1.0 0l0 2.875l-1.53125 0zm1.53125 -6.34375l0 2.171875l0.84375 0q0.90625 0 1.21875 -0.109375q0.3125 -0.125 0.484375 -0.375q0.171875 -0.265625 0.171875 -0.609375q0 -0.40625 -0.25 -0.671875q-0.234375 -0.28125 -0.609375 -0.34375q-0.28125 -0.0625 -1.109375 -0.0625l-0.75 0z" fill-rule="nonzero"/><path fill="#000000" d="m326.5948 40.3358l-0.96875 0l0 -3.671875q-0.546875 0.5 -1.265625 0.734375l0 -0.890625q0.375 -0.125 0.828125 -0.46875q0.453125 -0.34375 0.609375 -0.8125l0.796875 0l0 5.109375zm3.3652954 0l-0.96875 0l0 -3.671875q-0.546875 0.5 -1.265625 0.734375l0 -0.890625q0.375 -0.125 0.828125 -0.46875q0.453125 -0.34375 0.609375 -0.8125l0.796875 0l0 5.109375z" fill-rule="nonzero"/><path fill="#000000" fill-opacity="0.0" d="m336.3832 17.0958l33.606293 0l0 28.692915l-33.606293 0z" fill-rule="evenodd"/><path fill="#000000" d="m346.16446 36.3358l0 -7.625l2.46875 0q1.40625 0 1.828125 0.109375q0.65625 0.171875 1.09375 0.75q0.453125 0.578125 0.453125 1.484375q0 0.703125 -0.265625 1.1875q-0.25 0.46875 -0.640625 0.75q-0.390625 0.265625 -0.796875 0.359375q-0.5625 0.109375 -1.609375 0.109375l-1.0 0l0 2.875l-1.53125 0zm1.53125 -6.34375l0 2.171875l0.84375 0q0.90625 0 1.21875 -0.109375q0.3125 -0.125 0.484375 -0.375q0.171875 -0.265625 0.171875 -0.609375q0 -0.40625 -0.25 -0.671875q-0.234375 -0.28125 -0.609375 -0.34375q-0.28125 -0.0625 -1.109375 -0.0625l-0.75 0z" fill-rule="nonzero"/><path fill="#000000" d="m355.28772 40.3358l-0.96875 0l0 -3.671875q-0.546875 0.5 -1.265625 0.734375l0 -0.890625q0.375 -0.125 0.828125 -0.46875q0.453125 -0.34375 0.609375 -0.8125l0.796875 0l0 5.109375zm4.750702 -0.90625l0 0.90625l-3.421875 0q0.0625 -0.515625 0.328125 -0.96875q0.28125 -0.46875 1.109375 -1.21875q0.65625 -0.625 0.8125 -0.84375q0.203125 -0.296875 0.203125 -0.59375q0 -0.328125 -0.1875 -0.5q-0.171875 -0.171875 -0.484375 -0.171875q-0.296875 0 -0.484375 0.1875q-0.171875 0.171875 -0.203125 0.609375l-0.96875 -0.109375q0.078125 -0.796875 0.53125 -1.140625q0.46875 -0.359375 1.15625 -0.359375q0.75 0 1.171875 0.40625q0.4375 0.40625 0.4375 1.015625q0 0.34375 -0.125 0.65625q-0.125 0.296875 -0.390625 0.640625q-0.171875 0.234375 -0.640625 0.65625q-0.453125 0.421875 -0.578125 0.5625q-0.125 0.140625 -0.203125 0.265625l1.9375 0z" fill-rule="nonzero"/><path fill="#000000" fill-opacity="0.0" d="m365.0761 17.0958l33.606293 0l0 28.692915l-33.606293 0z" fill-rule="evenodd"/><path fill="#000000" d="m374.85736 36.3358l0 -7.625l2.46875 0q1.40625 0 1.828125 0.109375q0.65625 0.171875 1.09375 0.75q0.453125 0.578125 0.453125 1.484375q0 0.703125 -0.265625 1.1875q-0.25 0.46875 -0.640625 0.75q-0.390625 0.265625 -0.796875 0.359375q-0.5625 0.109375 -1.609375 0.109375l-1.0 0l0 2.875l-1.53125 0zm1.53125 -6.34375l0 2.171875l0.84375 0q0.90625 0 1.21875 -0.109375q0.3125 -0.125 0.484375 -0.375q0.171875 -0.265625 0.171875 -0.609375q0 -0.40625 -0.25 -0.671875q-0.234375 -0.28125 -0.609375 -0.34375q-0.28125 -0.0625 -1.109375 -0.0625l-0.75 0z" fill-rule="nonzero"/><path fill="#000000" d="m383.98062 40.3358l-0.96875 0l0 -3.671875q-0.546875 0.5 -1.265625 0.734375l0 -0.890625q0.375 -0.125 0.828125 -0.46875q0.453125 -0.34375 0.609375 -0.8125l0.796875 0l0 5.109375zm1.4226074 -1.34375l0.953125 -0.125q0.03125 0.359375 0.234375 0.5625q0.203125 0.1875 0.484375 0.1875q0.296875 0 0.5 -0.234375q0.21875 -0.234375 0.21875 -0.609375q0 -0.375 -0.203125 -0.59375q-0.203125 -0.21875 -0.484375 -0.21875q-0.1875 0 -0.453125 0.078125l0.109375 -0.796875q0.40625 0.015625 0.609375 -0.15625q0.203125 -0.1875 0.203125 -0.5q0 -0.25 -0.15625 -0.40625q-0.140625 -0.15625 -0.40625 -0.15625q-0.25 0 -0.421875 0.1875q-0.171875 0.171875 -0.21875 0.5l-0.890625 -0.15625q0.09375 -0.453125 0.28125 -0.734375q0.1875 -0.28125 0.515625 -0.4375q0.34375 -0.15625 0.765625 -0.15625q0.71875 0 1.15625 0.453125q0.359375 0.375 0.359375 0.859375q0 0.65625 -0.734375 1.0625q0.4375 0.09375 0.6875 0.421875q0.265625 0.328125 0.265625 0.78125q0 0.671875 -0.484375 1.15625q-0.484375 0.46875 -1.21875 0.46875q-0.6875 0 -1.140625 -0.390625q-0.453125 -0.40625 -0.53125 -1.046875z" fill-rule="nonzero"/><path fill="#000000" fill-opacity="0.0" d="m393.76904 17.0958l33.606293 0l0 28.692915l-33.606293 0z" fill-rule="evenodd"/><path fill="#000000" d="m403.5503 36.3358l0 -7.625l2.46875 0q1.40625 0 1.828125 0.109375q0.65625 0.171875 1.09375 0.75q0.453125 0.578125 0.453125 1.484375q0 0.703125 -0.265625 1.1875q-0.25 0.46875 -0.640625 0.75q-0.390625 0.265625 -0.796875 0.359375q-0.5625 0.109375 -1.609375 0.109375l-1.0 0l0 2.875l-1.53125 0zm1.53125 -6.34375l0 2.171875l0.84375 0q0.90625 0 1.21875 -0.109375q0.3125 -0.125 0.484375 -0.375q0.171875 -0.265625 0.171875 -0.609375q0 -0.40625 -0.25 -0.671875q-0.234375 -0.28125 -0.609375 -0.34375q-0.28125 -0.0625 -1.109375 -0.0625l-0.75 0z" fill-rule="nonzero"/><path fill="#000000" d="m412.67355 40.3358l-0.96875 0l0 -3.671875q-0.546875 0.5 -1.265625 0.734375l0 -0.890625q0.375 -0.125 0.828125 -0.46875q0.453125 -0.34375 0.609375 -0.8125l0.796875 0l0 5.109375zm3.375702 0l0 -1.03125l-2.09375 0l0 -0.84375l2.21875 -3.234375l0.8125 0l0 3.234375l0.640625 0l0 0.84375l-0.640625 0l0 1.03125l-0.9375 0zm0 -1.875l0 -1.75l-1.171875 1.75l1.171875 0z" fill-rule="nonzero"/><path fill="#000000" fill-opacity="0.0" d="m422.46194 17.0958l33.606293 0l0 28.692915l-33.606293 0z" fill-rule="evenodd"/><path fill="#000000" d="m432.2432 36.3358l0 -7.625l2.46875 0q1.40625 0 1.828125 0.109375q0.65625 0.171875 1.09375 0.75q0.453125 0.578125 0.453125 1.484375q0 0.703125 -0.265625 1.1875q-0.25 0.46875 -0.640625 0.75q-0.390625 0.265625 -0.796875 0.359375q-0.5625 0.109375 -1.609375 0.109375l-1.0 0l0 2.875l-1.53125 0zm1.53125 -6.34375l0 2.171875l0.84375 0q0.90625 0 1.21875 -0.109375q0.3125 -0.125 0.484375 -0.375q0.171875 -0.265625 0.171875 -0.609375q0 -0.40625 -0.25 -0.671875q-0.234375 -0.28125 -0.609375 -0.34375q-0.28125 -0.0625 -1.109375 -0.0625l-0.75 0z" fill-rule="nonzero"/><path fill="#000000" d="m441.36646 40.3358l-0.96875 0l0 -3.671875q-0.546875 0.5 -1.265625 0.734375l0 -0.890625q0.375 -0.125 0.828125 -0.46875q0.453125 -0.34375 0.609375 -0.8125l0.796875 0l0 5.109375zm1.4694519 -1.3125l0.96875 -0.09375q0.046875 0.328125 0.25 0.53125q0.203125 0.1875 0.46875 0.1875q0.3125 0 0.515625 -0.25q0.21875 -0.25 0.21875 -0.75q0 -0.46875 -0.21875 -0.703125q-0.203125 -0.234375 -0.53125 -0.234375q-0.421875 0 -0.765625 0.375l-0.78125 -0.125l0.5 -2.640625l2.578125 0l0 0.90625l-1.84375 0l-0.15625 0.859375q0.328125 -0.15625 0.671875 -0.15625q0.65625 0 1.09375 0.46875q0.453125 0.46875 0.453125 1.234375q0 0.625 -0.359375 1.109375q-0.5 0.6875 -1.375 0.6875q-0.703125 0 -1.15625 -0.375q-0.4375 -0.390625 -0.53125 -1.03125z" fill-rule="nonzero"/><path fill="#000000" fill-opacity="0.0" d="m451.15485 17.0958l33.606323 0l0 28.692915l-33.606323 0z" fill-rule="evenodd"/><path fill="#000000" d="m460.9361 36.3358l0 -7.625l2.46875 0q1.40625 0 1.828125 0.109375q0.65625 0.171875 1.09375 0.75q0.453125 0.578125 0.453125 1.484375q0 0.703125 -0.265625 1.1875q-0.25 0.46875 -0.640625 0.75q-0.390625 0.265625 -0.796875 0.359375q-0.5625 0.109375 -1.609375 0.109375l-1.0 0l0 2.875l-1.53125 0zm1.53125 -6.34375l0 2.171875l0.84375 0q0.90625 0 1.21875 -0.109375q0.3125 -0.125 0.484375 -0.375q0.171875 -0.265625 0.171875 -0.609375q0 -0.40625 -0.25 -0.671875q-0.234375 -0.28125 -0.609375 -0.34375q-0.28125 -0.0625 -1.109375 -0.0625l-0.75 0z" fill-rule="nonzero"/><path fill="#000000" d="m470.05936 40.3358l-0.96875 0l0 -3.671875q-0.546875 0.5 -1.265625 0.734375l0 -0.890625q0.375 -0.125 0.828125 -0.46875q0.453125 -0.34375 0.609375 -0.8125l0.796875 0l0 5.109375zm4.7663574 -3.84375l-0.953125 0.109375q-0.03125 -0.296875 -0.171875 -0.4375q-0.140625 -0.140625 -0.375 -0.140625q-0.3125 0 -0.53125 0.28125q-0.203125 0.28125 -0.265625 1.15625q0.359375 -0.4375 0.90625 -0.4375q0.609375 0 1.046875 0.46875q0.4375 0.46875 0.4375 1.203125q0 0.78125 -0.46875 1.265625q-0.453125 0.46875 -1.171875 0.46875q-0.765625 0 -1.265625 -0.59375q-0.5 -0.609375 -0.5 -1.96875q0 -1.40625 0.515625 -2.015625q0.53125 -0.625 1.34375 -0.625q0.59375 0 0.96875 0.328125q0.375 0.328125 0.484375 0.9375zm-2.21875 2.125q0 0.484375 0.21875 0.75q0.21875 0.25 0.5 0.25q0.28125 0 0.453125 -0.203125q0.1875 -0.21875 0.1875 -0.703125q0 -0.5 -0.203125 -0.734375q-0.1875 -0.234375 -0.484375 -0.234375q-0.28125 0 -0.484375 0.234375q-0.1875 0.21875 -0.1875 0.640625z" fill-rule="nonzero"/><path fill="#ffffff" d="m23.217848 131.86613l28.692915 0l0 28.692917l-28.692915 0z" fill-rule="evenodd"/><path fill="#000000" d="m33.60847 153.27322l0 -0.6875q1.09375 0.53125 1.515625 0.796875q0.421875 0.28125 1.296875 0.984375l0 -13.4375l0.921875 0l0 13.4375q0.984375 -0.9375 2.8125 -1.796875l0 0.703125q-1.3125 1.171875 -1.984375 2.015625q-0.671875 0.84375 -1.109375 1.75l-0.421875 0q-0.328125 -0.78125 -1.015625 -1.671875q-0.6875 -0.875 -2.015625 -2.09375z" fill-rule="nonzero"/><path fill="#ffffff" d="m51.910763 131.86613l28.692913 0l0 28.692917l-28.692913 0z" fill-rule="evenodd"/><path fill="#000000" d="m62.301388 153.27322l0 -0.6875q1.09375 0.53125 1.515625 0.796875q0.4218712 0.28125 1.2968712 0.984375l0 -13.4375l0.921875 0l0 13.4375q0.984375 -0.9375 2.8125 -1.796875l0 0.703125q-1.3125 1.171875 -1.984375 2.015625q-0.671875 0.84375 -1.109375 1.75l-0.421875 0q-0.328125 -0.78125 -1.015625 -1.671875q-0.6874962 -0.875 -2.0156212 -2.09375z" fill-rule="nonzero"/><path fill="#ffffff" d="m80.603676 131.86613l28.69291 0l0 28.692917l-28.69291 0z" fill-rule="evenodd"/><path fill="#000000" d="m90.9943 153.27322l0 -0.6875q1.09375 0.53125 1.515625 0.796875q0.421875 0.28125 1.296875 0.984375l0 -13.4375l0.921875 0l0 13.4375q0.984375 -0.9375 2.8125 -1.796875l0 0.703125q-1.3125 1.171875 -1.984375 2.015625q-0.671875 0.84375 -1.109375 1.75l-0.421875 0q-0.328125 -0.78125 -1.015625 -1.671875q-0.6875 -0.875 -2.015625 -2.09375z" fill-rule="nonzero"/><path fill="#ffffff" d="m109.296585 131.86613l28.692917 0l0 28.692917l-28.692917 0z" fill-rule="evenodd"/><path fill="#000000" d="m119.68721 153.27322l0 -0.6875q1.09375 0.53125 1.515625 0.796875q0.421875 0.28125 1.296875 0.984375l0 -13.4375l0.921875 0l0 13.4375q0.984375 -0.9375 2.8125 -1.796875l0 0.703125q-1.3125 1.171875 -1.984375 2.015625q-0.671875 0.84375 -1.109375 1.75l-0.421875 0q-0.328125 -0.78125 -1.015625 -1.671875q-0.6875 -0.875 -2.015625 -2.09375z" fill-rule="nonzero"/><path fill="#ffffff" d="m137.9895 131.86613l28.692917 0l0 28.692917l-28.692917 0z" fill-rule="evenodd"/><path fill="#000000" d="m148.38013 153.27322l0 -0.6875q1.09375 0.53125 1.515625 0.796875q0.421875 0.28125 1.296875 0.984375l0 -13.4375l0.921875 0l0 13.4375q0.984375 -0.9375 2.8125 -1.796875l0 0.703125q-1.3125 1.171875 -1.984375 2.015625q-0.671875 0.84375 -1.109375 1.75l-0.421875 0q-0.328125 -0.78125 -1.015625 -1.671875q-0.6875 -0.875 -2.015625 -2.09375z" fill-rule="nonzero"/><path fill="#ffffff" d="m166.68242 131.86613l28.692917 0l0 28.692917l-28.692917 0z" fill-rule="evenodd"/><path fill="#000000" d="m177.07304 153.27322l0 -0.6875q1.09375 0.53125 1.515625 0.796875q0.421875 0.28125 1.296875 0.984375l0 -13.4375l0.921875 0l0 13.4375q0.984375 -0.9375 2.8125 -1.796875l0 0.703125q-1.3125 1.171875 -1.984375 2.015625q-0.671875 0.84375 -1.109375 1.75l-0.421875 0q-0.328125 -0.78125 -1.015625 -1.671875q-0.6875 -0.875 -2.015625 -2.09375z" fill-rule="nonzero"/><path fill="#ffffff" d="m195.37534 131.86613l28.692902 0l0 28.692917l-28.692902 0z" fill-rule="evenodd"/><path fill="#000000" d="m205.76596 153.27322l0 -0.6875q1.09375 0.53125 1.515625 0.796875q0.421875 0.28125 1.296875 0.984375l0 -13.4375l0.921875 0l0 13.4375q0.984375 -0.9375 2.8125 -1.796875l0 0.703125q-1.3125 1.171875 -1.984375 2.015625q-0.671875 0.84375 -1.109375 1.75l-0.421875 0q-0.328125 -0.78125 -1.015625 -1.671875q-0.6875 -0.875 -2.015625 -2.09375z" fill-rule="nonzero"/><path fill="#ffffff" d="m224.06824 131.86613l28.692917 0l0 28.692917l-28.692917 0z" fill-rule="evenodd"/><path fill="#000000" d="m234.45886 153.27322l0 -0.6875q1.09375 0.53125 1.515625 0.796875q0.421875 0.28125 1.296875 0.984375l0 -13.4375l0.921875 0l0 13.4375q0.984375 -0.9375 2.8125 -1.796875l0 0.703125q-1.3125 1.171875 -1.984375 2.015625q-0.671875 0.84375 -1.109375 1.75l-0.421875 0q-0.328125 -0.78125 -1.015625 -1.671875q-0.6875 -0.875 -2.015625 -2.09375z" fill-rule="nonzero"/><path fill="#ffffff" d="m252.76115 131.86613l28.692917 0l0 28.692917l-28.692917 0z" fill-rule="evenodd"/><path fill="#000000" d="m263.1518 153.27322l0 -0.6875q1.09375 0.53125 1.515625 0.796875q0.421875 0.28125 1.296875 0.984375l0 -13.4375l0.921875 0l0 13.4375q0.984375 -0.9375 2.8125 -1.796875l0 0.703125q-1.3125 1.171875 -1.984375 2.015625q-0.671875 0.84375 -1.109375 1.75l-0.421875 0q-0.328125 -0.78125 -1.015625 -1.671875q-0.6875 -0.875 -2.015625 -2.09375z" fill-rule="nonzero"/><path fill="#ffffff" d="m281.45407 131.86613l28.692902 0l0 28.692917l-28.692902 0z" fill-rule="evenodd"/><path fill="#000000" d="m291.8447 153.27322l0 -0.6875q1.09375 0.53125 1.515625 0.796875q0.421875 0.28125 1.296875 0.984375l0 -13.4375l0.921875 0l0 13.4375q0.984375 -0.9375 2.8125 -1.796875l0 0.703125q-1.3125 1.171875 -1.984375 2.015625q-0.671875 0.84375 -1.109375 1.75l-0.421875 0q-0.328125 -0.78125 -1.015625 -1.671875q-0.6875 -0.875 -2.015625 -2.09375z" fill-rule="nonzero"/><path fill="#ffffff" d="m310.14697 131.86613l28.692932 0l0 28.692917l-28.692932 0z" fill-rule="evenodd"/><path fill="#000000" d="m320.5376 153.27322l0 -0.6875q1.09375 0.53125 1.515625 0.796875q0.421875 0.28125 1.296875 0.984375l0 -13.4375l0.921875 0l0 13.4375q0.984375 -0.9375 2.8125 -1.796875l0 0.703125q-1.3125 1.171875 -1.984375 2.015625q-0.671875 0.84375 -1.109375 1.75l-0.421875 0q-0.328125 -0.78125 -1.015625 -1.671875q-0.6875 -0.875 -2.015625 -2.09375z" fill-rule="nonzero"/><path fill="#ffffff" d="m338.8399 131.86613l28.692902 0l0 28.692917l-28.692902 0z" fill-rule="evenodd"/><path fill="#000000" d="m349.23053 153.27322l0 -0.6875q1.09375 0.53125 1.515625 0.796875q0.421875 0.28125 1.296875 0.984375l0 -13.4375l0.921875 0l0 13.4375q0.984375 -0.9375 2.8125 -1.796875l0 0.703125q-1.3125 1.171875 -1.984375 2.015625q-0.671875 0.84375 -1.109375 1.75l-0.421875 0q-0.328125 -0.78125 -1.015625 -1.671875q-0.6875 -0.875 -2.015625 -2.09375z" fill-rule="nonzero"/><path fill="#ffffff" d="m367.5328 131.86613l28.692902 0l0 28.692917l-28.692902 0z" fill-rule="evenodd"/><path fill="#000000" d="m377.92343 153.27322l0 -0.6875q1.09375 0.53125 1.515625 0.796875q0.421875 0.28125 1.296875 0.984375l0 -13.4375l0.921875 0l0 13.4375q0.984375 -0.9375 2.8125 -1.796875l0 0.703125q-1.3125 1.171875 -1.984375 2.015625q-0.671875 0.84375 -1.109375 1.75l-0.421875 0q-0.328125 -0.78125 -1.015625 -1.671875q-0.6875 -0.875 -2.015625 -2.09375z" fill-rule="nonzero"/><path fill="#ffffff" d="m396.2257 131.86613l28.692932 0l0 28.692917l-28.692932 0z" fill-rule="evenodd"/><path fill="#000000" d="m406.61633 153.27322l0 -0.6875q1.09375 0.53125 1.515625 0.796875q0.421875 0.28125 1.296875 0.984375l0 -13.4375l0.921875 0l0 13.4375q0.984375 -0.9375 2.8125 -1.796875l0 0.703125q-1.3125 1.171875 -1.984375 2.015625q-0.671875 0.84375 -1.109375 1.75l-0.421875 0q-0.328125 -0.78125 -1.015625 -1.671875q-0.6875 -0.875 -2.015625 -2.09375z" fill-rule="nonzero"/><path fill="#ffffff" d="m424.91864 131.86613l28.692902 0l0 28.692917l-28.692902 0z" fill-rule="evenodd"/><path fill="#000000" d="m435.30927 153.27322l0 -0.6875q1.09375 0.53125 1.515625 0.796875q0.421875 0.28125 1.296875 0.984375l0 -13.4375l0.921875 0l0 13.4375q0.984375 -0.9375 2.8125 -1.796875l0 0.703125q-1.3125 1.171875 -1.984375 2.015625q-0.671875 0.84375 -1.109375 1.75l-0.421875 0q-0.328125 -0.78125 -1.015625 -1.671875q-0.6875 -0.875 -2.015625 -2.09375z" fill-rule="nonzero"/><path fill="#ffffff" d="m453.61154 131.86613l28.692932 0l0 28.692917l-28.692932 0z" fill-rule="evenodd"/><path fill="#000000" d="m464.00217 153.27322l0 -0.6875q1.09375 0.53125 1.515625 0.796875q0.421875 0.28125 1.296875 0.984375l0 -13.4375l0.921875 0l0 13.4375q0.984375 -0.9375 2.8125 -1.796875l0 0.703125q-1.3125 1.171875 -1.984375 2.015625q-0.671875 0.84375 -1.109375 1.75l-0.421875 0q-0.328125 -0.78125 -1.015625 -1.671875q-0.6875 -0.875 -2.015625 -2.09375z" fill-rule="nonzero"/></g></svg>