<svg version="1.1" viewBox="0.0 0.0 299.503937007874 234.6981627296588" fill="none" stroke="none" stroke-linecap="square" stroke-miterlimit="10" xmlns:xlink="http://www.w3.org/1999/xlink" xmlns="http://www.w3.org/2000/svg"><clipPath id="p.0"><path d="m0 0l299.50394 0l0 234.69817l-299.50394 0l0 -234.69817z" clip-rule="nonzero"/></clipPath><g clip-path="url(#p.0)"><path fill="#000000" fill-opacity="0.0" d="m0 0l299.50394 0l0 234.69817l-299.50394 0z" fill-rule="evenodd"/><path fill="#ffffff" d="m28.094488 123.154854l0 0c0 -10.897835 8.834444 -19.732285 19.732283 -19.732285l0 0c5.233326 0 10.252312 2.0789337 13.952831 5.779457c3.7005234 3.7005157 5.7794495 8.719505 5.7794495 13.952827l0 0c0 10.897835 -8.834442 19.732292 -19.73228 19.732292l0 0c-10.897839 0 -19.732283 -8.834457 -19.732283 -19.732292z" fill-rule="evenodd"/><path stroke="#000000" stroke-width="1.0" stroke-linejoin="round" stroke-linecap="butt" d="m28.094488 123.154854l0 0c0 -10.897835 8.834444 -19.732285 19.732283 -19.732285l0 0c5.233326 0 10.252312 2.0789337 13.952831 5.779457c3.7005234 3.7005157 5.7794495 8.719505 5.7794495 13.952827l0 0c0 10.897835 -8.834442 19.732292 -19.73228 19.732292l0 0c-10.897839 0 -19.732283 -8.834457 -19.732283 -19.732292z" fill-rule="evenodd"/><path fill="#000000" d="m48.28019 116.1061l2.0625 0l4.53125 12.875008l1.15625 0.171875l0 0.921875l-4.921875 0l0 -0.921875l1.546875 -0.171875l-0.875 -2.7656326l-5.453125 0l-0.875 2.7656326l1.59375 0.171875l0 0.921875l-4.421875 0l0 -0.921875l1.171875 -0.171875l4.484375 -12.875008zm1.171875 2.984375l-0.453125 -1.640625l-0.453125 1.671875l-1.890625 5.984375l4.765625 0l-1.96875 -6.015625z" fill-rule="nonzero"/><path fill="#ffffff" d="m127.04724 46.53806l0 0c0 -10.897842 8.834442 -19.732285 19.732285 -19.732285l0 0c5.233322 0 10.252319 2.07893 13.952835 5.7794533c3.7005157 3.7005196 5.7794495 8.7195015 5.7794495 13.952831l0 0c0 10.897839 -8.834442 19.73228 -19.732285 19.73228l0 0c-10.897842 0 -19.732285 -8.834442 -19.732285 -19.73228z" fill-rule="evenodd"/><path stroke="#000000" stroke-width="1.0" stroke-linejoin="round" stroke-linecap="butt" d="m127.04724 46.53806l0 0c0 -10.897842 8.834442 -19.732285 19.732285 -19.732285l0 0c5.233322 0 10.252319 2.07893 13.952835 5.7794533c3.7005157 3.7005196 5.7794495 8.7195015 5.7794495 13.952831l0 0c0 10.897839 -8.834442 19.73228 -19.732285 19.73228l0 0c-10.897842 0 -19.732285 -8.834442 -19.732285 -19.73228z" fill-rule="evenodd"/><path fill="#000000" d="m144.23294 40.754932l-1.53125 -0.21875l0 -0.9375l2.515625 0q0.640625 0 1.609375 -0.078125q0.890625 -0.078125 1.328125 -0.078125q2.578125 0 3.6875 0.8125q1.109375 0.796875 1.109375 2.34375q0 1.328125 -0.765625 2.28125q-0.765625 0.953125 -2.09375 1.1875q1.796875 -0.03125 2.8125 0.84375q1.03125 0.875 1.03125 2.390625q0 1.875 -1.34375 3.078125q-1.328125 1.1875 -4.40625 1.1875q-0.671875 0 -1.28125 -0.046875q-1.453125 -0.0625 -1.734375 -0.0625l-2.484375 0l0 -0.921875l1.546875 -0.171875l0 -11.609375zm1.984375 4.953125q0.25 0.03125 1.0625 0.03125l1.015625 0q1.3125 0 1.984375 -0.71875q0.671875 -0.734375 0.671875 -2.078125q0 -1.3125 -0.671875 -1.921875q-0.671875 -0.609375 -2.296875 -0.609375q-0.671875 0 -1.375 0.078125l-0.390625 0.046875l0 5.171875zm0 6.703125q0.421875 0.15625 1.9375 0.15625q1.875 0 2.71875 -0.765625q0.859375 -0.78125 0.859375 -2.25q0 -1.421875 -0.734375 -2.078125q-0.734375 -0.65625 -2.375 -0.65625q-1.90625 0 -2.40625 0.03125l0 5.5625z" fill-rule="nonzero"/><path fill="#ffffff" d="m127.04724 190.1064l0 0c0 -10.897842 8.834442 -19.732285 19.732285 -19.732285l0 0c5.233322 0 10.252319 2.0789337 13.952835 5.7794495c3.7005157 3.7005157 5.7794495 8.719498 5.7794495 13.952835l0 0c0 10.897842 -8.834442 19.732285 -19.732285 19.732285l0 0c-10.897842 0 -19.732285 -8.834442 -19.732285 -19.732285z" fill-rule="evenodd"/><path stroke="#000000" stroke-width="1.0" stroke-linejoin="round" stroke-linecap="butt" d="m127.04724 190.1064l0 0c0 -10.897842 8.834442 -19.732285 19.732285 -19.732285l0 0c5.233322 0 10.252319 2.0789337 13.952835 5.7794495c3.7005157 3.7005157 5.7794495 8.719498 5.7794495 13.952835l0 0c0 10.897842 -8.834442 19.732285 -19.732285 19.732285l0 0c-10.897842 0 -19.732285 -8.834442 -19.732285 -19.732285z" fill-rule="evenodd"/><path fill="#000000" d="m148.87357 197.22952q-2.046875 0 -3.5 -0.875q-1.4375 -0.890625 -2.1875 -2.5q-0.75 -1.609375 -0.75 -3.765625q0 -2.09375 0.875 -3.6875q0.890625 -1.609375 2.40625 -2.5q1.53125 -0.890625 3.4375 -0.890625q1.4375 0 3.453125 0.453125l0.625 0.109375l-0.1875 3.359375l-1.25 0l-0.46875 -2.375q-0.265625 -0.21875 -0.90625 -0.375q-0.640625 -0.15625 -1.578125 -0.15625q-1.1875 0 -2.125 0.6875q-0.9375 0.671875 -1.46875 2.0q-0.53125 1.3125 -0.53125 3.171875q0 1.75 0.46875 3.1875q0.46875 1.4375 1.421875 2.28125q0.953125 0.84375 2.34375 0.84375q0.984375 0 1.515625 -0.15625q0.53125 -0.171875 0.90625 -0.484375l0.78125 -1.828125l1.1875 0.140625l-0.453125 2.65625q-0.390625 0.015625 -1.15625 0.25q-0.671875 0.21875 -1.296875 0.328125q-0.625 0.125 -1.5625 0.125z" fill-rule="nonzero"/><path fill="#ffffff" d="m229.91864 123.154854l0 0c0 -10.897835 8.834442 -19.732285 19.732285 -19.732285l0 0c5.233322 0 10.252304 2.0789337 13.952835 5.779457c3.7005005 3.7005157 5.7794495 8.719505 5.7794495 13.952827l0 0c0 10.897835 -8.834442 19.732292 -19.732285 19.732292l0 0c-10.897842 0 -19.732285 -8.834457 -19.732285 -19.732292z" fill-rule="evenodd"/><path stroke="#000000" stroke-width="1.0" stroke-linejoin="round" stroke-linecap="butt" d="m229.91864 123.154854l0 0c0 -10.897835 8.834442 -19.732285 19.732285 -19.732285l0 0c5.233322 0 10.252304 2.0789337 13.952835 5.779457c3.7005005 3.7005157 5.7794495 8.719505 5.7794495 13.952827l0 0c0 10.897835 -8.834442 19.732292 -19.732285 19.732292l0 0c-10.897842 0 -19.732285 -8.834457 -19.732285 -19.732292z" fill-rule="evenodd"/><path fill="#000000" d="m247.10434 117.37173l-1.453125 -0.21875l0 -0.9375l2.4375 0q0.578125 0 1.671875 -0.078125q1.078125 -0.078125 1.609375 -0.078125q3.484375 0 5.171875 1.75q1.6875 1.75 1.6875 4.890625q0 2.203125 -0.875 3.921875q-0.859375 1.7031326 -2.4375 2.6562576q-1.5625 0.953125 -3.59375 0.953125q-0.453125 0 -1.53125 -0.078125q-1.125 -0.078125 -1.671875 -0.078125l-2.5625 0l0 -0.921875l1.546875 -0.171875l0 -11.609383zm1.984375 11.656258q0.640625 0.15625 1.671875 0.15625l0.5625 0q1.390625 -0.03125 2.46875 -0.71875q1.078125 -0.6875076 1.671875 -2.0468826q0.59375 -1.375 0.59375 -3.34375q0 -2.9375 -1.28125 -4.46875q-1.265625 -1.53125 -3.84375 -1.53125q-0.546875 0 -1.296875 0.078125q-0.3125 0.046875 -0.546875 0.046875l0 11.828133z" fill-rule="nonzero"/><path fill="#000000" fill-opacity="0.0" d="m61.779602 109.20203l71.055115 -48.72441" fill-rule="evenodd"/><path stroke="#000000" stroke-width="1.0" stroke-linejoin="round" stroke-linecap="butt" d="m61.779606 109.20203l66.106766 -45.3312" fill-rule="evenodd"/><path fill="#000000" stroke="#000000" stroke-width="1.0" stroke-linecap="butt" d="m128.82048 65.23305l2.8085785 -3.9286766l-4.676796 1.2042313z" fill-rule="evenodd"/><path fill="#000000" fill-opacity="0.0" d="m61.779602 137.10768l71.055115 39.05513" fill-rule="evenodd"/><path stroke="#000000" stroke-width="1.0" stroke-linejoin="round" stroke-linecap="butt" d="m61.779606 137.10768l65.79703 36.165054" fill-rule="evenodd"/><path fill="#000000" stroke="#000000" stroke-width="1.0" stroke-linecap="butt" d="m126.78103 174.72021l4.77256 0.73843384l-3.1813507 -3.6334076z" fill-rule="evenodd"/><path fill="#000000" fill-opacity="0.0" d="m146.77953 66.27034l0 104.09448" fill-rule="evenodd"/><path stroke="#000000" stroke-width="1.0" stroke-linejoin="round" stroke-linecap="butt" d="m146.77953 66.27034l0 98.09448" fill-rule="evenodd"/><path fill="#000000" stroke="#000000" stroke-width="1.0" stroke-linecap="butt" d="m145.12779 164.36482l1.6517334 4.538101l1.6517334 -4.538101z" fill-rule="evenodd"/><path fill="#000000" fill-opacity="0.0" d="m160.73746 176.16281l74.96063 -39.05513" fill-rule="evenodd"/><path stroke="#000000" stroke-width="1.0" stroke-linejoin="round" stroke-linecap="butt" d="m160.73746 176.16281l69.63951 -36.28279" fill-rule="evenodd"/><path fill="#000000" stroke="#000000" stroke-width="1.0" stroke-linecap="butt" d="m231.14017 141.34486l3.2614288 -3.5616913l-4.7878113 0.6320038z" fill-rule="evenodd"/><path fill="#000000" fill-opacity="0.0" d="m160.73236 60.49089l74.96063 48.72441" fill-rule="evenodd"/><path stroke="#000000" stroke-width="1.0" stroke-linejoin="round" stroke-linecap="butt" d="m160.73236 60.49089l69.92998 45.454475" fill-rule="evenodd"/><path fill="#000000" stroke="#000000" stroke-width="1.0" stroke-linecap="butt" d="m229.76216 107.33025l4.7051086 1.0883179l-2.9047546 -3.8580933z" fill-rule="evenodd"/><path fill="#000000" fill-opacity="0.0" d="m74.002625 60.47769l34.614174 0l0 35.55905l-34.614174 0z" fill-rule="evenodd"/><path fill="#000000" d="m89.70575 81.15269l0 1.125l-6.296875 0q-0.015625 -0.421875 0.140625 -0.8125q0.234375 -0.640625 0.765625 -1.265625q0.53125 -0.625 1.53125 -1.453125q1.5625 -1.265625 2.109375 -2.015625q0.546875 -0.75 0.546875 -1.40625q0 -0.703125 -0.5 -1.171875q-0.5 -0.484375 -1.296875 -0.484375q-0.859375 0 -1.375 0.515625q-0.5 0.5 -0.5 1.390625l-1.203125 -0.109375q0.125 -1.359375 0.921875 -2.0625q0.8125 -0.703125 2.171875 -0.703125q1.375 0 2.171875 0.765625q0.8125 0.75 0.8125 1.875q0 0.578125 -0.234375 1.140625q-0.234375 0.546875 -0.78125 1.15625q-0.546875 0.609375 -1.8125 1.671875q-1.046875 0.890625 -1.359375 1.21875q-0.296875 0.3125 -0.484375 0.625l4.671875 0z" fill-rule="nonzero"/><path fill="#000000" fill-opacity="0.0" d="m74.002625 146.91399l34.614174 0l0 35.55905l-34.614174 0z" fill-rule="evenodd"/><path fill="#000000" d="m87.315125 168.71399l0 -2.28125l-4.140625 0l0 -1.078125l4.34375 -6.1875l0.96875 0l0 6.1875l1.28125 0l0 1.078125l-1.28125 0l0 2.28125l-1.171875 0zm0 -3.359375l0 -4.296875l-2.984375 4.296875l2.984375 0z" fill-rule="nonzero"/><path fill="#000000" fill-opacity="0.0" d="m127.04724 96.03674l34.61418 0l0 35.55905l-34.61418 0z" fill-rule="evenodd"/><path fill="#000000" d="m141.01599 117.83675l-1.171875 0l0 -7.46875q-0.421875 0.40625 -1.109375 0.8125q-0.6875 0.40625 -1.234375 0.609375l0 -1.140625q0.984375 -0.453125 1.71875 -1.109375q0.734375 -0.671875 1.03125 -1.28125l0.765625 0l0 9.578125z" fill-rule="nonzero"/><path fill="#000000" fill-opacity="0.0" d="m184.94226 156.80052l34.614166 0l0 35.55905l-34.614166 0z" fill-rule="evenodd"/><path fill="#000000" d="m198.91101 178.60052l-1.171875 0l0 -7.46875q-0.421875 0.40625 -1.109375 0.8125q-0.6875 0.40625 -1.234375 0.609375l0 -1.140625q0.984375 -0.453125 1.71875 -1.109375q0.734375 -0.671875 1.03125 -1.28125l0.765625 0l0 9.578125z" fill-rule="nonzero"/><path fill="#000000" fill-opacity="0.0" d="m180.91077 49.577427l34.614166 0l0 35.559055l-34.614166 0z" fill-rule="evenodd"/><path fill="#000000" d="m190.47327 68.8618l1.171875 -0.15625q0.203125 1.0 0.6875 1.4375q0.484375 0.4375 1.171875 0.4375q0.828125 0 1.390625 -0.578125q0.578125 -0.578125 0.578125 -1.421875q0 -0.796875 -0.53125 -1.3125q-0.515625 -0.53125 -1.328125 -0.53125q-0.34375 0 -0.828125 0.125l0.125 -1.03125q0.125 0.015625 0.1875 0.015625q0.75 0 1.34375 -0.390625q0.609375 -0.390625 0.609375 -1.203125q0 -0.640625 -0.4375 -1.0625q-0.4375 -0.421875 -1.125 -0.421875q-0.6875 0 -1.140625 0.4375q-0.453125 0.421875 -0.59375 1.28125l-1.171875 -0.21875q0.21875 -1.171875 0.984375 -1.8125q0.765625 -0.65625 1.890625 -0.65625q0.78125 0 1.4375 0.34375q0.65625 0.328125 1.0 0.90625q0.359375 0.578125 0.359375 1.234375q0 0.609375 -0.34375 1.125q-0.328125 0.5 -0.96875 0.796875q0.84375 0.203125 1.3125 0.828125q0.46875 0.609375 0.46875 1.53125q0 1.25 -0.921875 2.125q-0.90625 0.859375 -2.296875 0.859375q-1.25 0 -2.09375 -0.75q-0.828125 -0.75 -0.9375 -1.9375z" fill-rule="nonzero"/></g></svg>